<svg width="157" height="176" viewBox="0 0 157 176" fill="none" xmlns="http://www.w3.org/2000/svg">
<g clip-path="url(#clip0_184_491)">
<path d="M45.4364 130.29C45.8922 134.72 46.6057 138.898 45.0796 143.562C42.3843 151.859 52.8485 150.519 55.2267 155.552C52.7692 156.776 50.7279 155.046 49.083 153.822C43.4149 149.528 39.0945 148.634 33.2876 154.735C28.1348 160.138 20.9209 156.99 17.413 150.305C14.0042 143.834 12.8548 136.586 8.67307 130.329C3.40135 122.439 5.30393 112.762 5.54175 104.173C6.01739 87.7135 4.43191 71.4876 2.15278 55.3393C1.39968 50.0537 3.06444 44.9042 1.24113 39.5797C0.0520238 36.1402 3.12389 31.9817 6.77049 31.4765C15.233 30.3105 21.892 23.5287 32.9309 30.0191C43.8113 36.4317 58.0409 38.8413 72.1517 38.511C83.0321 38.2584 93.6944 37.1701 104.416 35.9459C106.775 35.6739 108.043 34.8771 108.776 32.8756L108.677 33.0311C116.367 31.2044 121.44 25.2582 127.089 20.711C134.56 14.7064 141.873 18.2042 148.374 19.9143C154.874 21.6243 153.962 29.3001 154.141 35.0715C154.636 51.4334 153.546 67.7566 154.101 84.1574C154.755 103.201 157.193 122.284 155.568 141.405C154.735 151.121 140.823 166.064 131.766 169.873C123.046 173.526 114.385 171.292 105.784 172.535C102.593 173.002 99.2832 171.758 96.6672 169.446C95.2006 168.144 95.4186 164.063 92.0891 165.928C89.2154 167.541 93.4962 168.552 93.1791 170.378C92.7035 173.002 90.5036 172.866 88.8191 173.604C81.9619 176.538 73.8165 174.615 68.9015 172.244C63.491 169.621 64.918 160.293 66.3845 153.706C66.9989 151.004 68.9609 148.595 70.3086 146.049L69.9122 146.341C81.5655 144.028 92.9611 139.87 105.189 141.619L105.486 141.444C108.994 147.448 115.376 148.498 121.084 143.406C129.189 136.178 132.36 127.278 129.388 115.035L129.328 114.783C129.09 102.424 124.017 90.9781 122.114 78.9496C123.462 80.2321 124.809 81.534 126.157 82.8166C126.97 81.4952 128.714 79.96 128.456 78.8913C126.018 68.9808 129.665 58.7594 126.316 46.4393C122.59 50.9476 119.815 54.3288 117.021 57.7101C115.812 57.3603 114.603 56.9911 113.414 56.6413C105.229 61.6743 95.6366 62.0629 86.5994 63.7924C81.3079 64.8029 79.8809 66.338 80.5944 71.06C82.16 81.4369 79.8413 92.591 87.2534 101.802C88.7794 103.687 88.938 105.999 86.6787 107.845C83.9239 110.08 82.6753 107.709 81.0304 106.232C79.108 104.503 76.8883 101.977 74.4308 104.911C71.2202 108.739 68.0295 109.283 64.4819 105.883C60.3002 101.86 64.4423 98.7705 66.2062 95.6613C72.1121 85.2067 80.2773 75.5489 77.6811 61.5382C74.7876 63.3649 72.1517 64.2976 69.0798 64.3559C63.0154 64.4725 57.6049 60.0225 50.9459 63.0734C45.8327 65.4053 42.424 59.5173 37.945 58.1764C34.3578 57.0882 30.4932 56.9522 26.5692 56.3692C26.0143 60.1391 27.897 62.9374 28.3132 65.9882C30.6716 82.9526 27.9366 100.519 33.7633 116.901C35.6857 122.303 35.5073 131.203 45.4958 130.737L45.4562 130.329L45.4364 130.29ZM135.452 148.031C140.05 146.729 140.605 142.551 141.873 139.054C145.619 128.696 145.262 118.125 143.28 107.457C141.041 95.3698 139.832 83.3413 140.704 70.8657C141.358 61.4605 138.563 51.8221 137.315 42.2808C136.364 42.378 135.393 42.4752 134.441 42.5723C138.524 59.3618 136.978 76.4234 138.583 93.3294C140.308 111.751 146.075 130.387 135.591 148.167C123.184 155.96 109.728 155.318 95.9537 153.22C105.447 156.951 115.277 157.611 125.127 155.61C129.388 154.755 134.124 153.317 135.452 148.051V148.031ZM21.5353 34.4302C44.5445 46.3033 68.4456 54.2123 95.0421 48.0328C68.5844 53.4155 45.476 42.1642 21.5353 34.4302ZM17.4328 67.3679C22.1893 83.4578 13.5484 99.6255 18.0472 115.715C16.1446 99.6061 23.9135 83.4578 17.4328 67.3679Z" fill="black"/>
<path d="M108.776 32.8757C103.861 14.7454 90.1273 9.67358 72.0528 9.28493C75.2832 16.2028 76.3733 23.0236 77.0471 29.9026C77.2849 32.2345 77.5425 36.8594 73.7969 34.4692C68.1684 30.8742 62.3418 32.4288 56.634 31.4572C56.8917 30.8742 57.07 29.9803 57.3277 29.9609C74.431 28.0371 70.9232 25.7829 65.81 12.9188C64.4822 9.57642 60.459 6.35066 64.1452 2.42534C67.7522 -1.42225 70.9033 2.54193 73.8365 3.7856C83.3097 7.78865 93.2982 5.80656 104.238 6.71987C99.5212 9.30437 97.797 11.267 102.177 15.0758C107.389 19.6035 111.65 25.2 108.717 32.9923C108.677 33.0506 108.776 32.8952 108.776 32.8952V32.8757Z" fill="black"/>
<path d="M45.4365 130.29L45.4761 130.698C43.6925 127.316 38.1235 125.995 39.491 121.37C55.7619 122.614 67.653 129.046 69.952 146.341L70.3483 146.049C64.2641 146.243 65.0172 152.753 61.0931 155.59C55.8412 147.118 50.6289 138.704 45.4167 130.309L45.4365 130.29Z" fill="black"/>
<path d="M129.447 115.016C124.77 117.426 122.57 120.807 122.768 126.403C122.907 130.367 123.006 136.197 115.534 134.409L115.772 134.643C122.035 123.955 121.639 113.112 114.563 105.183C113.196 109.73 115.693 115.035 111.61 118.902L111.888 118.98C112.978 109.847 110.164 100.383 114.385 90.1038C115.336 101.666 119.558 109.983 129.388 114.744L129.447 114.997V115.016Z" fill="black"/>
<path d="M117.061 57.6906C116.129 62.0434 114.128 66.2408 121.401 68.0091C125.761 69.0585 121.678 73.5668 122.55 76.3845C115.931 71.5458 119.201 80.2515 116.07 80.8733C115.951 72.5952 108.856 65.3081 113.474 56.6218C114.682 56.9716 115.891 57.3408 117.1 57.6906H117.061Z" fill="black"/>
<path d="M39.0152 75.5099C35.6065 86.2365 38.2027 88.4129 52.8287 86.9944C50.946 90.8614 49.1623 94.5924 44.7428 96.2636C41.0566 97.6433 39.0549 100.208 41.5916 103.745C44.723 108.137 48.1912 105.319 50.7082 102.909C54.2358 99.5476 57.3275 95.7001 60.3796 91.8913C63.3722 88.1409 66.0873 84.1767 69.7141 80.8538C65.0766 91.3667 60.3399 101.918 49.5983 108.059C45.5553 110.371 40.3431 110.177 38.9954 104.989C36.855 96.8466 35.9236 88.3741 34.8335 79.9988C34.5164 77.6086 36.1614 75.7237 38.9756 75.4905L39.0152 75.5099Z" fill="black"/>
</g>
<defs>
<clipPath id="clip0_184_491">
<rect width="155.159" height="174.288" fill="white" transform="translate(0.983643 0.773438)"/>
</clipPath>
</defs>
</svg>
