<svg width="68" height="112" viewBox="0 0 68 112" fill="none" xmlns="http://www.w3.org/2000/svg">
<path d="M59.6636 30.1639C59.3807 38.4742 56.6388 45.8166 52.3302 52.7173C51.4816 54.0848 49.1096 55.9362 51.6992 57.2616C53.8317 58.3556 54.2234 55.9362 54.6586 54.4214C55.2679 52.3386 56.3559 50.2979 58.8149 50.6555C61.5132 51.0552 62.9494 53.8534 62.166 55.7679C58.5102 64.8566 63.08 72.2411 65.9959 80.362C68.0632 86.1265 67.9761 92.8168 67.802 99.0653C67.5409 108.533 58.6626 114.024 49.7189 110.847C19.5587 100.117 -4.7044 58.7343 1.67146 28.6281C4.3045 16.2364 11.7031 7.33709 23.8455 2.4351C35.2264 -2.17235 44.8663 0.478511 52.1997 10.03C56.8129 16.0471 59.5112 22.7794 59.6853 30.185L59.6636 30.1639ZM6.37176 43.292C6.76345 55.7468 10.7239 68.7487 21.169 79.2469C27.0661 85.1798 32.2669 85.2429 38.3817 79.857C41.3411 77.2483 44.4093 77.8373 47.7387 78.9945C51.0246 80.1306 53.897 85.285 57.5745 81.8978C61.7308 78.0898 56.1383 75.1865 54.7021 71.9676C54.2016 70.8736 55.2026 67.7599 51.5033 69.1905C46.8901 70.9577 44.6705 68.2227 44.6269 64.0992C44.5834 59.3024 41.9069 61.1538 39.7743 62.0584C36.7931 63.3207 37.8594 65.6771 38.5122 67.823C38.9039 69.1484 40.1878 70.6211 38.9474 71.7572C37.5112 73.0616 35.6833 71.9676 34.3124 71.2312C28.7199 68.2227 24.6072 64.0781 24.3896 57.451C24.172 50.7607 27.1967 45.7114 33.1373 42.3453C35.3569 41.104 38.2728 39.8838 39.9702 42.3453C41.8416 45.0382 39.2521 46.6161 36.989 47.9415C35.1176 49.0566 32.0493 50.3189 34.0078 52.8435C35.7704 55.1367 38.2729 52.9487 40.079 51.7706C47.347 47.0579 51.1116 33.0462 47.4341 24.0207C44.5182 16.8676 39.8614 11.3134 31.2442 10.4718C22.801 9.63029 16.6863 13.4803 12.2036 20.0023C7.74268 26.4822 6.41528 33.8246 6.37176 43.271V43.292Z" fill="black"/>
<path d="M23.6715 71.0632C14.0098 59.7023 10.8762 47.0161 15.8377 32.9833C18.166 26.4193 22.6705 21.3911 29.0681 18.067C30.809 17.1623 32.6804 16.426 34.2036 18.1932C35.5963 19.8132 35.0741 21.6435 33.9208 23.2635C33.3115 24.084 32.5498 24.7993 31.8753 25.5778C20.2551 39.1897 14.3362 53.7484 23.6933 71.0632H23.6715Z" fill="black"/>
</svg>
