<svg width="136" height="180" viewBox="0 0 136 180" fill="none" xmlns="http://www.w3.org/2000/svg">
<path d="M69.0727 71.0759C80.2166 71.0759 91.3604 71.1098 102.504 71.0419C104.49 71.0419 107.596 72.1631 107.628 68.4598C107.628 64.7225 104.522 65.8097 102.536 65.8097C80.4728 65.7418 58.4092 65.7078 36.3136 65.8097C34.2321 65.8097 30.6456 64.4507 30.9018 68.7656C31.1259 72.3669 34.3282 71.0079 36.2495 71.0079C47.1693 71.1438 58.089 71.0759 69.0087 71.0759H69.0727Z" fill="black"/>
<path d="M88.6705 46.6138C93.7942 46.6138 98.8858 46.6478 104.009 46.6138C105.803 46.6138 107.82 46.6138 107.596 43.7599C107.404 41.4496 105.578 41.5175 104.073 41.5175C93.8582 41.4496 83.611 41.4496 73.3958 41.4836C71.6345 41.4836 69.5851 41.5515 69.8092 44.3714C70.0014 46.6817 71.7946 46.5798 73.3317 46.5798C78.4553 46.6138 83.5469 46.5798 88.6705 46.5798V46.6138Z" fill="black"/>
<path d="M34.9047 3.39752H101.095C118.604 3.39752 132.798 18.4566 132.798 37.0329V142.967C132.798 161.543 118.604 176.603 101.095 176.603H34.9047C17.396 176.603 3.20236 161.543 3.20236 142.967V37.0329C3.20236 18.4566 17.396 3.39752 34.9047 3.39752Z" stroke="black" stroke-width="2" stroke-miterlimit="10"/>
<path d="M78.3914 97.9162C85.6925 97.9162 92.9937 97.9162 100.295 97.9162C102.857 97.9162 105.739 97.9162 105.45 95.3681C105.194 93.2956 102.6 93.3635 100.423 93.3635C85.8206 93.3296 71.2183 93.2956 56.616 93.3296C54.0862 93.3296 51.1722 93.3975 51.4924 95.9117C51.7486 97.9842 54.3424 97.8822 56.5199 97.8822C63.8211 97.9162 71.1222 97.8822 78.4234 97.8822L78.3914 97.9162Z" fill="black"/>
<path d="M83.9633 126.285C89.0869 126.285 94.1785 126.319 99.3021 126.285C101.095 126.285 103.113 126.285 102.889 123.431C102.696 121.121 100.871 121.189 99.3661 121.189C89.1509 121.121 78.9037 121.121 68.6885 121.155C66.9272 121.155 64.8778 121.223 65.102 124.043C65.2941 126.353 67.0874 126.251 68.6244 126.251C73.7481 126.285 78.8397 126.251 83.9633 126.251V126.285Z" fill="black"/>
</svg>
