<svg width="180" height="153" viewBox="0 0 180 153" fill="none" xmlns="http://www.w3.org/2000/svg">
<g clip-path="url(#clip0_184_581)">
<path d="M105.298 46.7998C105.298 47.1611 105.362 48.9465 105.298 50.7106C104.193 77.5128 101.302 81.5086 75.4565 89.4366C64.2978 92.8586 55.3496 99.7026 46.699 106.95C39.6637 112.838 33.2235 119.448 26.507 125.718C22.915 129.055 19.408 133.901 13.9668 131.925C7.54788 129.587 10.9486 123.38 10.7573 118.832C10.4598 112.434 10.0347 106.164 7.80293 100.085C0.682624 80.7435 -0.592656 60.6791 1.59657 40.4871C4.14713 16.9157 18.9829 3.03645 42.5968 0.698435C61.0246 -1.12947 78.3259 3.73785 95.5422 9.32783C99.0917 10.4756 100.346 12.9624 101.323 16.1718C104.235 25.7152 105.872 35.4073 105.298 46.821V46.7998Z" fill="black"/>
<path d="M102.556 11.8572C126.553 14.7903 149.061 14.9391 171.591 13.7276C174.439 13.5788 177.585 13.8551 179.073 16.682C180.625 19.6364 178.69 22.0807 176.714 24.2061C172.548 28.6271 169.275 33.6857 166.873 39.2119C156.267 63.6335 135.395 72.1141 111.101 75.1961C108.082 75.5786 102.981 77.1727 105.107 70.5625C111.356 51.1358 110.973 31.8791 102.556 11.8572Z" fill="black"/>
<path d="M127.871 152.372C121.643 139.428 109.549 133.349 98.7517 125.655C91.1213 120.235 88.7408 111.435 86.3815 102.806C83.6397 92.7311 79.8988 91.5621 72.9273 99.0013C68.6126 103.592 65.1056 108.991 61.4286 114.156C58.4954 118.279 55.3072 122.041 50.2486 123.444C46.6141 124.443 42.7032 123.975 40.6202 120.787C38.0272 116.834 42.5119 115.346 44.6161 113.497C53.6706 105.59 62.7251 97.5559 74.4789 93.7726C78.9211 92.3485 82.7895 90.5844 88.2094 94.0489C95.4147 98.6612 91.5464 87.7788 96.3712 86.7161C97.4977 89.2666 96.2437 91.7109 95.7761 94.1764C92.5879 111.095 96.8601 120.851 111.377 129.906C119.773 135.134 126.893 141.298 127.892 152.372H127.871Z" fill="black"/>
</g>
<defs>
<clipPath id="clip0_184_581">
<rect width="179.007" height="152.077" fill="white" transform="translate(0.618896 0.294678)"/>
</clipPath>
</defs>
</svg>
