<svg width="92" height="88" viewBox="0 0 92 88" fill="none" xmlns="http://www.w3.org/2000/svg">
<path d="M69.528 45.2716C67.663 38.329 61.0749 35.6113 56.4487 30.077C61.9468 28.9158 66.7426 29.657 72.0954 32.1277C68.2927 28.1746 63.4243 25.7534 58.1926 26.9146C50.4419 28.6193 44.8953 23.3074 38.2345 21.7262C35.0373 20.9603 36.9508 18.712 37.7259 17.3532C40.2691 12.9801 44.1686 9.57061 43.2967 3.36926C42.8607 0.280947 47.0994 -0.0402371 49.4246 0.626839C58.4832 3.22103 67.4208 5.91404 76.8669 2.7516C77.424 2.55395 78.6835 2.82572 78.8046 3.19632C80.6212 8.23645 84.4481 10.3859 89.3165 11.3742C90.3338 11.5965 90.6487 13.2272 90.0916 14.4872C89.2196 16.3896 87.5726 17.6249 85.6592 17.5014C77.8116 16.9332 74.6144 16.4637 80.3063 26.544C88.2266 40.602 94.0881 56.2413 90.6487 73.6594C88.4203 84.9503 83.3582 89.0021 72.0228 87.2233C50.0301 83.7643 29.9994 76.0559 13.5775 60.1696C11.3734 58.0448 9.21777 55.846 7.23165 53.4988C0.0622451 44.8763 -1.41523 37.7361 2.58123 31.5347C7.2801 24.2463 20.9165 18.6873 28.643 20.8615C34.238 22.4427 40.9472 36.896 39.5667 43.9374C39.2033 45.741 35.3038 49.1011 41.0926 49.3975C41.2621 49.3975 41.2863 51.6211 41.4559 52.807C41.8919 55.7965 41.359 59.0084 43.5631 62.7885C43.8295 56.6613 44.0233 50.6082 52.4764 56.8095C39.6635 49.1999 44.3382 34.5736 37.4352 24.9628C47.608 27.0875 55.6252 32.4242 62.7946 39.342C64.9502 41.4173 66.4519 44.2586 69.5038 45.2716C72.3376 52.4365 75.4379 59.5272 73.4033 68.3228C78.8531 64.3697 79.3859 60.6637 76.2614 56.0436C72.7978 50.9541 79.3859 54.7342 79.5312 51.7694C75.3895 51.127 72.8705 47.594 69.5038 45.2716H69.528Z" fill="black"/>
</svg>
