<svg width="145" height="115" viewBox="0 0 145 115" fill="none" xmlns="http://www.w3.org/2000/svg">
<path d="M111.539 72.1001C110.081 72.828 105.171 69.8661 108.477 75.7397C109.911 78.2749 107.893 82.5421 112.341 84.1234C113.63 84.5752 111.539 86.0562 111.491 86.0311C104.004 83.9477 108.501 91.2521 105.56 94.1638C105.608 85.0521 106.726 76.4676 100.82 68.6612C98.9236 74.2085 103.445 78.1996 101.792 83.5712C97.8298 75.9656 98.7291 67.9835 96.2498 60.7544C92.7981 50.6638 84.8981 46.5222 76.755 42.757C72.1123 40.5984 58.4028 53.7262 56.2151 60.654C54.5135 66.0758 53.1037 71.5227 53.3468 78.4757C49.7492 74.811 53.9058 72.2507 51.1591 69.0126C45.4711 76.6684 46.5406 85.3283 46.3462 93.9881C45.2766 89.7711 46.6865 83.7971 38.7622 85.1274C47.6831 81.1615 40.4394 68.7114 50.1138 65.5989C41.1686 64.6451 32.8068 70.2677 24.0804 66.8289C31.1053 67.7074 37.2308 63.7665 44.7662 63.2645C41.8249 61.6079 39.0782 63.2645 36.6717 61.0556C40.9985 60.1018 45.1551 61.1058 49.0686 59.6249C52.9092 58.169 55.4858 55.7091 56.5554 51.6679C57.0658 49.7351 56.1421 48.3295 54.3677 47.7019C50.1868 46.2461 46.6379 47.3254 43.3077 50.3124C41.6548 51.7934 41.0957 53.8517 39.9046 55.684C37.3523 52.1699 39.4671 50.1116 41.9951 48.3797C40.2206 45.3173 37.3766 48.3797 35.2862 46.472C38.9323 46.0704 42.4326 47.0995 46.1274 45.3424C44.0612 42.1797 40.8769 41.6526 37.8142 41.251C34.4597 40.7992 32.5637 38.8915 30.3517 34.6243C34.1437 36.9587 36.4529 38.9919 39.1511 39.8453C41.6062 40.6235 44.6932 38.3142 47.4157 42.1546C43.016 35.4778 48.2422 31.7879 50.5514 26.8682C50.5514 30.3321 50.4785 33.4446 50.5514 36.5822C50.6972 42.5813 57.552 47.2752 61.66 43.5101C66.5458 39.0421 72.4526 34.5992 72.5012 26.4665C72.5498 19.1873 72.7686 11.908 73.036 4.62871C73.1089 2.77124 72.0637 0.0854428 75.8313 0.236048C79.3559 0.386654 78.6267 2.84655 78.651 4.82952C78.7969 12.2845 78.6996 19.7646 78.8455 27.2196C78.9184 31.311 87.9365 43.2089 91.6313 44.3384C96.4685 45.8194 101.5 42.004 101.695 36.6073C101.816 33.2689 101.695 29.9556 101.695 26.4163C104.028 31.2859 108.914 35.277 104.709 41.753C109.643 39.4939 110.689 33.7458 115.623 32.3653C114.651 35.3774 110.64 36.1053 110.713 40.1215C114.894 40.1717 117.324 36.8583 120.436 35.0762C123.839 35.8794 113.946 41.8283 123.012 40.6486C116.863 40.9498 111.102 40.5231 105.608 45.0412C109.692 47.0995 113.411 45.9198 117.081 46.4218C115.088 48.455 112.366 45.5684 110.591 48.1538C112.147 51.4922 116.425 50.6638 118.88 52.6468C118.054 57.4662 111.807 46.5975 112.998 56.3618C110.154 51.442 107.431 47.8274 102.594 47.1748C100.309 46.8736 97.5867 46.6728 96.1525 49.0323C94.4753 51.7934 96.2984 54.178 97.9513 56.2112C100.382 59.148 103.761 60.2273 107.358 60.4783C110.008 60.654 112.706 60.5034 116.692 60.5034C113.314 62.888 110.859 62.0346 107.261 62.9131C114.991 64.3439 121.092 67.3811 128.263 66.4523C124.058 68.862 124.033 68.611 115.501 66.9042C111.175 66.0256 106.799 65.4483 102.035 64.6702C104.028 69.2385 109.254 68.611 111.345 72.2005L111.466 72.0499L111.539 72.1001Z" fill="black"/>
<path d="M83.28 38.1868C83.6663 25.7362 89.8718 15.5675 94.9907 5.07629C96.705 1.57922 100.279 1.70323 103.683 2.32328C113.341 4.13382 120.947 9.49102 126.96 17.13C134.855 27.1747 138.646 38.8564 141.544 51.5054C145.769 70.0819 143.765 88.3609 142.582 106.764C142.196 112.89 138.501 115.445 133.02 112.964C119.112 106.615 104.963 104.507 90.0891 108.475C87.7711 109.095 85.6946 108.376 84.8736 106.069C82.5556 99.621 79.1511 93.0981 81.3483 86.0047C83.4732 79.209 82.7729 72.9094 80.5998 66.3617C78.9579 61.4261 77.8472 56.2673 78.9579 50.8605C79.8996 62.5918 88.1816 73.1822 83.5697 85.8311C81.2276 92.2548 84.6563 97.984 86.2499 103.887C86.9984 106.615 89.0508 106.243 91.3688 105.747C105.229 102.771 118.678 104.135 131.716 109.914C138.163 112.766 139.902 111.6 140.819 104.532C141.906 96.1983 142.003 87.8897 141.278 79.4818C140.819 73.9758 143.234 68.3954 141.64 62.7654C141.52 62.319 141.351 61.6493 141.568 61.3517C145.262 56.3417 134.445 56.1185 138.357 49.67C140.771 45.7017 136.594 39.7245 134.831 34.8385C133.044 29.8781 130.461 25.3394 127.394 21.0735C122.131 13.7321 115.515 8.44934 107.039 5.39871C100.593 3.06734 96.198 4.23302 93.9524 11.3016C91.3688 19.4366 86.0085 26.5547 85.598 35.5082C85.5497 36.4754 85.26 37.9387 83.2317 38.0876L83.28 38.1868Z" fill="black"/>
<path d="M62.63 38.0272C60.802 29.1634 56.7259 21.119 53.1686 12.9008C49.1914 3.71423 47.0422 2.89489 37.7783 6.22191C23.228 11.4359 7.07192 33.4091 6.45433 48.2813C6.33082 51.3353 8.97409 51.3104 9.98693 53.0484C1.14309 55.7547 2.82292 63.8736 3.51462 69.3359C4.99683 80.757 2.18063 92.1036 4.42865 103.475C6.232 112.562 6.80018 113.406 15.2488 109.806C27.9464 104.419 41.138 103.301 54.5273 106.032C58.5046 106.852 60.0856 106.107 61.2714 102.308C63.297 95.8279 65.1992 89.5215 62.383 82.7185C61.6172 80.8315 61.6419 78.4231 61.9136 76.3375C63.0253 67.6476 66.7308 59.5535 67.8425 50.8139C69.4729 57.0458 67.5213 62.806 65.7674 68.4917C64.0134 74.1278 63.1488 79.6149 65.298 85.3503C68.1142 92.8236 64.2852 99.428 62.136 106.181C61.0984 109.359 58.2328 109.136 55.4907 108.49C41.2615 105.188 27.6005 106.901 14.2112 112.686C6.82489 115.889 3.68754 113.928 2.6747 105.883C0.821941 90.9118 0.204353 75.7416 2.00771 60.919C3.90988 45.0785 8.08476 29.4862 19.1519 16.923C25.6489 9.54892 33.307 4.18597 43.1884 2.44798C47.1657 1.75278 50.5747 2.62178 52.2793 6.34605C56.8988 16.4512 63.05 26.0847 62.63 38.0272Z" fill="black"/>
<path d="M39.5148 72.1794C37.3894 74.3922 36.7821 78.0064 31.6457 75.0806C27.4202 72.6712 21.4742 73.9497 16.3631 75.3019C23.8273 72.8433 32.1265 75.3019 39.5148 72.1794Z" fill="black"/>
<path d="M110.899 72.2896C117.839 73.9865 124.969 74.0085 132.122 74.317C126.887 75.1324 121.558 72.9067 116.371 76.0359C115.092 76.8072 112.249 74.2509 111.018 72.1794L110.899 72.3117V72.2896Z" fill="black"/>
</svg>
