<svg width="169" height="142" viewBox="0 0 169 142" fill="none" xmlns="http://www.w3.org/2000/svg">
<g clip-path="url(#clip0_150_194)">
<path d="M85.0962 -0.000222594C102.459 -0.000222594 119.857 -0.0710986 137.22 -0.000222594C156.267 0.0706534 168.825 12.7929 168.93 32.142C169 48.6916 169.035 65.2765 168.93 81.8261C168.789 100.573 156.302 113.224 137.606 113.756C124.277 114.146 124.452 114.146 124.172 127.47C124.067 132.254 126.697 139.165 122.453 141.362C117.507 143.913 113.368 137.57 110.106 134.168C93.655 117.016 74.1523 110.318 50.756 113.543C42.8638 114.642 34.5506 114.181 26.6232 113.082C11.0491 111.027 0.561148 98.9426 0.245456 83.2082C-0.0702348 65.6664 -0.105312 48.0891 0.245456 30.5473C0.596224 12.8638 13.8202 0.176967 31.534 0.0706534C49.388 -0.0356606 67.2421 0.0706534 85.1313 0.0706534L85.0962 -0.000222594ZM84.7805 5.66985C67.3824 5.66985 50.0194 5.59898 32.6213 5.66985C16.3457 5.74073 5.9279 16.0886 5.78759 32.4964C5.64728 48.5853 5.68236 64.6387 5.78759 80.7275C5.9279 97.5605 16.1352 107.802 32.9721 108.05C41.7764 108.192 50.721 109.007 59.3849 107.873C78.1861 105.463 93.7953 110.637 106.914 124.493C109.755 127.506 113.789 132.892 117.332 131.085C120.594 129.419 118.489 122.97 118.559 118.646C118.735 108.015 118.63 108.015 128.802 108.015C131.748 108.015 134.695 108.086 137.606 108.015C153.11 107.483 163.177 97.2062 163.282 81.6134C163.388 65.2765 163.353 48.9751 163.282 32.6382C163.212 15.5571 153.286 5.66985 136.168 5.63442C119.015 5.56354 101.898 5.63442 84.7455 5.63442L84.7805 5.66985Z" fill="black"/>
<path d="M84.5701 29.8388V82.287" stroke="black" stroke-miterlimit="10"/>
<path d="M50.4053 55.1769H118.7" stroke="black" stroke-width="0.75" stroke-miterlimit="10"/>
</g>
<defs>
<clipPath id="clip0_150_194">
<rect width="169" height="142" fill="white"/>
</clipPath>
</defs>
</svg>
