<svg width="154" height="130" viewBox="0 0 154 130" fill="none" xmlns="http://www.w3.org/2000/svg">
<g clip-path="url(#clip0_150_209)">
<path d="M55.245 0.0303376C66.5889 0.0303376 77.9327 -0.090931 89.2465 0.0303376C101.102 0.181923 109.437 8.45851 109.617 20.4035C109.798 34.3494 109.768 48.3256 109.617 62.3018C109.497 74.2467 101.734 82.6143 89.6377 83.2206C80.0089 83.7057 70.32 83.4935 60.6611 83.3419C57.0804 83.2813 54.2219 84.2211 51.5138 86.5555C46.3985 90.9515 41.0726 95.0747 35.8069 99.2584C34.2121 100.532 32.7076 102.593 30.3606 101.472C28.1942 100.441 29.1871 98.1367 29.0066 96.348C28.6154 92.3764 30.5111 87.6773 28.0738 84.6152C25.6967 81.6138 20.9726 83.7057 17.3016 83.0387C7.37197 81.2803 0.30085 73.6404 0.1504 63.4235C-0.0602289 48.841 -0.0903188 34.2281 0.1504 19.6455C0.33094 8.45851 8.72602 0.424461 19.9495 0.0606548C20.3708 0.0606548 20.7921 0.0606548 21.2133 0.0606548C32.5572 0.0606548 43.9011 0.0606548 55.245 0.0606548V0.0303376ZM34.152 94.3167C39.508 90.042 44.0214 86.9193 47.9331 83.1903C51.9351 79.4007 56.3282 78.2789 61.6541 78.4608C70.4704 78.764 79.2868 78.7034 88.1031 78.4608C98.8151 78.188 104.773 72.0336 104.863 61.3013C104.953 47.9921 104.984 34.6525 104.863 21.3433C104.773 10.9748 98.6346 4.88108 88.2837 4.85077C66.0472 4.75982 43.7807 4.75982 21.5443 4.85077C10.8022 4.9114 5.02496 10.9142 4.96478 21.889C4.87451 34.1675 4.96478 46.4156 4.96478 58.6941C4.96478 73.125 10.381 78.5518 24.7338 78.5518C30.7518 78.5518 33.8009 81.4926 33.8812 87.3741C33.8812 89.2234 34.0617 91.0728 34.2121 94.2864L34.152 94.3167Z" fill="black"/>
<path d="M123.94 123.906C124.662 120.693 124.813 120.299 124.813 119.874C125.094 113.164 128.634 109.718 135.435 109.536C144.131 109.293 148.915 104.503 149.005 95.59C149.125 84.3727 149.125 73.1856 149.005 61.9683C148.915 53.0247 144.191 48.3256 135.374 48.2043C130.139 48.1133 124.873 48.2043 119.637 48.174C117.952 48.174 116.147 48.2952 116.207 45.688C116.267 43.0504 118.163 43.3839 119.758 43.3839C126.047 43.3839 132.365 43.111 138.654 43.5051C146.748 44.0205 153.549 51.0844 153.759 59.5126C154.09 72.3974 154.12 85.3125 153.759 98.1973C153.489 107.535 145.966 114.478 136.157 114.296C130.741 114.174 129.236 115.933 129.597 121.087C129.808 123.997 131.493 128.211 127.912 129.697C124.602 131.091 122.195 127.423 120.179 125.301C111.603 116.236 101.433 112.628 89.1263 114.326C85.0039 114.902 80.7312 114.629 76.5487 114.326C66.4686 113.538 59.0364 103.685 60.6612 93.7104C60.932 92.0126 61.2931 90.8605 63.249 90.9818C65.265 91.0728 65.3252 92.4977 65.5358 94.0742C67.4014 107.444 69.8988 109.778 83.2587 109.566C98.093 109.354 113.319 107.353 124 123.967L123.94 123.906Z" fill="black"/>
<path d="M53.8308 42.8382C65.5959 42.8382 77.331 42.8078 89.0961 42.8685C90.7811 42.8685 93.3087 42.0196 93.4892 44.9604C93.7299 48.4468 90.9015 47.6283 89.0058 47.6283C65.295 47.6889 41.5541 47.6889 17.8433 47.6283C16.1281 47.6283 13.721 48.3256 13.7811 45.2029C13.8112 42.1409 16.2184 42.8382 17.9335 42.8382C29.9093 42.7775 41.855 42.8078 53.8308 42.8078V42.8382Z" fill="black"/>
<path d="M73.9308 29.1348C68.9359 29.1348 63.9108 29.1954 58.9159 29.1348C57.3513 29.1348 55.3352 29.438 55.3653 26.8307C55.3653 24.3144 57.2911 24.4053 58.9159 24.4053C69.3571 24.375 79.7682 24.4053 90.2094 24.4053C92.0449 24.4053 93.6697 24.8298 93.5193 27.1339C93.3688 29.1651 91.6838 29.1651 90.2395 29.1651C84.8233 29.1954 79.377 29.1651 73.9609 29.1651L73.9308 29.1348Z" fill="black"/>
</g>
<defs>
<clipPath id="clip0_150_209">
<rect width="154" height="130" fill="white"/>
</clipPath>
</defs>
</svg>
