<svg width="99" height="101" viewBox="0 0 99 101" fill="none" xmlns="http://www.w3.org/2000/svg">
<path d="M96 80.5675C96 82.2775 95.6274 84.035 94.8358 85.745C94.0441 87.455 93.0195 89.07 91.669 90.59C89.3871 93.155 86.8723 95.0075 84.0316 96.195C81.2374 97.3825 78.2103 98 74.9504 98C70.2003 98 65.1242 96.86 59.7687 94.5325C54.4131 92.205 49.0576 89.07 43.7486 85.1275C38.3931 81.1375 33.317 76.72 28.4737 71.8275C23.677 66.8875 19.346 61.71 15.4807 56.295C11.662 50.88 8.58838 45.465 6.35303 40.0975C4.11768 34.6825 3 29.505 3 24.565C3 21.335 3.55884 18.2475 4.67651 15.3975C5.79419 12.5 7.56385 9.84 10.032 7.465C13.0125 4.4725 16.2724 3 19.7186 3C21.0225 3 22.3265 3.285 23.4907 3.855C24.7016 4.425 25.7727 5.28 26.6109 6.515L37.4151 22.0475C38.2534 23.235 38.8588 24.3275 39.2779 25.3725C39.697 26.37 39.9299 27.3675 39.9299 28.27C39.9299 29.41 39.6039 30.55 38.9519 31.6425C38.3465 32.735 37.4617 33.875 36.344 35.015L32.8047 38.7675C32.2924 39.29 32.0596 39.9075 32.0596 40.6675C32.0596 41.0475 32.1062 41.38 32.1993 41.76C32.339 42.14 32.4787 42.425 32.5719 42.71C33.4101 44.2775 34.8538 46.32 36.9029 48.79C38.9985 51.26 41.2339 53.7775 43.6555 56.295C46.1703 58.8125 48.5919 61.14 51.0601 63.2775C53.4817 65.3675 55.4842 66.7925 57.0676 67.6475C57.3005 67.7425 57.5799 67.885 57.9059 68.0275C58.2784 68.17 58.651 68.2175 59.0701 68.2175C59.8618 68.2175 60.4672 67.9325 60.9795 67.41L64.5188 63.8475C65.683 62.66 66.8007 61.7575 67.8718 61.1875C68.9429 60.5225 70.014 60.19 71.1783 60.19C72.0631 60.19 72.9945 60.38 74.019 60.8075C75.0436 61.235 76.1147 61.8525 77.2789 62.66L92.6935 73.8225C93.9044 74.6775 94.7426 75.675 95.2549 76.8625C95.7206 78.05 96 79.2375 96 80.5675Z" stroke="black" stroke-width="4.5" stroke-miterlimit="10"/>
</svg>
