<svg width="107" height="206" viewBox="0 0 107 206" fill="none" xmlns="http://www.w3.org/2000/svg">
<g clip-path="url(#clip0_184_588)">
<path d="M131.537 5.41978C109.104 16.7701 89.8285 31.0724 70.3829 45.1227C61.9096 51.2516 56.7422 58.6088 56.4869 69.7549C56.2216 81.7393 47.2564 87.8192 37.3133 84.2179C34.0511 83.0408 18.5137 54.6742 19.4506 51.3164C20.8855 46.1486 24.3826 42.3764 29.4676 41.2777C58.6675 35.0856 81.9809 17.6361 106.048 1.61078C118.308 -6.55061 118.571 -6.73929 131.548 5.40159L131.537 5.41978Z" fill="black"/>
<path d="M95.1412 160.073C92.9307 163.772 105.131 167.874 94.8649 171.253C88.1059 173.485 81.4532 179.713 76.0332 167.831C69.2955 153.059 60.4536 139.201 50.1238 126.534C44.9164 120.136 40.4104 112.59 29.5493 115.099C25.1071 116.119 22.429 111.336 20.8987 107.107C18.7945 101.304 19.5596 95.8418 23.3217 91.0808C26.2336 87.3825 29.7831 89.5292 32.9713 90.9957C40.5167 94.4603 47.4245 93.0149 54.0347 88.5515C58.6682 85.427 63.4505 82.9827 68.4453 87.595C73.2276 92.016 72.0586 97.1596 69.5081 102.197C67.5101 106.172 66.2774 110.508 68.1265 114.482C75.6719 130.721 82.9835 147.129 95.5238 160.413L95.1624 160.073H95.1412Z" fill="black"/>
<path d="M97.5748 163.35C91.9636 148.557 83.1854 135.422 75.6613 121.648C72.4518 115.761 71.6866 110.554 75.1724 104.815C76.0863 103.327 76.9578 101.287 79.0195 102.328C80.401 103.029 82.2289 104.836 82.1864 106.09C81.4425 126.495 95.5769 141.011 102.676 158.27C104.228 162.032 107.628 165.029 107.628 170.003C101.889 170.662 102.293 162.585 97.2135 163.01L97.5748 163.35Z" fill="black"/>
<path d="M9.12036 59.2762C9.31165 58.2134 9.56671 55.3866 10.4382 52.7722C11.0333 50.9656 11.8835 48.245 14.4978 49.0527C15.6243 49.3927 16.687 51.8158 16.7508 53.3461C17.0696 61.9542 20.0453 69.0108 27.4844 73.8781C29.3123 75.0896 30.6301 76.875 29.5673 79.1918C28.5471 81.4022 26.4217 81.6148 24.2112 81.6573C15.8368 81.8273 9.12036 72.6878 9.12036 59.2762Z" fill="black"/>
</g>
<defs>
<clipPath id="clip0_184_588">
<rect width="105.614" height="205.129" fill="white" transform="translate(0.618408 0.020752)"/>
</clipPath>
</defs>
</svg>
