<svg width="116" height="186" viewBox="0 0 116 186" fill="none" xmlns="http://www.w3.org/2000/svg">
<g clip-path="url(#clip0_184_572)">
<path d="M73.9688 185.583C89.9523 157.016 88.7833 127.409 81.8118 96.9719C78.6023 82.965 80.0689 68.8307 86.4453 55.5253C87.9756 52.3584 89.1021 48.9789 90.3986 45.7056C91.5464 42.815 91.3338 39.9669 88.9108 37.9477C86.7003 36.0985 84.2135 37.0763 82.0243 38.4153C66.3809 47.9586 50.6312 50.1904 33.9675 40.4983C29.3553 37.8202 22.7451 39.4568 26.0608 45.982C39.77 72.8053 31.0131 98.9698 26.4221 125.708C23.0851 145.199 22.6175 165.114 34.9027 185.498C27.5274 181.927 25.4657 177.378 23.6378 172.617C15.8373 152.34 13.5205 131.362 17.4952 110.065C20.9384 91.5519 19.5569 74.4207 8.58946 58.3734C2.02177 48.7663 0.874022 37.1825 0.491438 25.8113C0.0238356 11.1881 6.18769 5.23678 21.0022 5.40681C23.4677 5.42807 26.2733 5.06674 28.3563 6.04445C45.3175 14.015 61.2585 9.2114 77.3908 3.13257C85.8714 -0.0556322 94.5858 -0.480725 102.833 4.8967C115.224 12.9735 118.582 23.0057 112.737 36.6299C109.528 44.0903 106.595 51.8908 102.067 58.5009C92.3116 72.7416 91.8227 88.0237 94.0332 104.241C96.52 122.562 96.3499 140.926 92.9917 159.184C90.8662 170.789 85.6376 180.333 73.99 185.583H73.9688Z" fill="black"/>
<path d="M38.7073 185.753C31.1194 161.14 33.0536 138.185 38.0909 115.23C39.7063 107.854 42.9795 101.265 47.783 95.4417C56.2211 85.2182 64.0429 85.537 69.5478 97.5247C82.5557 125.815 81.6204 154.126 66.8272 185.009C64.9143 177.591 65.5944 172.957 66.1683 168.366C68.06 153.403 66.9335 138.716 61.5986 124.539C60.2595 121.011 59.2393 116.314 54.457 116.356C49.2284 116.42 48.0381 121.33 46.7628 125.283C42.6607 138.057 44.276 151.171 44.5736 164.243C44.7436 171.363 45.9339 178.951 38.7073 185.774V185.753Z" fill="black"/>
<path d="M64.5529 1.8362C53.6705 9.44537 44.5735 7.68123 33.0322 1.92122C44.5948 1.00727 53.6918 0.518412 64.5529 1.8362Z" fill="black"/>
</g>
<defs>
<clipPath id="clip0_184_572">
<rect width="115.051" height="184.979" fill="white" transform="translate(0.470215 0.773438)"/>
</clipPath>
</defs>
</svg>
