<svg width="114" height="113" viewBox="0 0 114 113" fill="none" xmlns="http://www.w3.org/2000/svg">
<path d="M12.1402 15.4661C20.1124 11.3916 26.2787 3.17538 36.5852 4.33953C37.2018 4.40669 38.1708 4.58579 38.4351 4.24998C43.5002 -1.92896 50.3933 2.34705 56.0971 0.914246C65.8971 -1.54838 72.7461 3.06345 80.0355 7.94392C83.8895 10.5185 88.9106 10.0036 93.0068 12.4886C99.6796 16.5407 105.648 21.1749 107.608 29.2344C108.422 32.5925 111.285 34.5626 112.144 37.6745C115.316 49.1817 113.488 59.9724 106.969 69.8005C104.657 73.293 100.913 75.4646 96.8167 75.9347C93.9757 76.2705 89.4832 78.8227 88.36 74.9049C85.9375 66.4648 88.2499 60.8455 93.5353 59.3232C98.0059 58.0471 101.64 54.5099 108.026 55.0696C104.04 52.3383 101.992 51.7786 98.7987 54.3084C95.7816 56.7039 91.7515 58.6516 87.4791 56.6591C81.6211 53.9278 80.9605 51.0174 84.8805 45.7788C80.6522 47.0325 77.3855 44.9131 75.0805 39.4207C72.8782 41.9057 75.565 44.1221 75.3007 46.9653C73.0544 46.9653 70.7861 47.0101 68.5398 46.9653C62.8139 46.831 61.0522 44.3907 62.4836 38.7267C64.6638 30.1523 62.5497 25.4062 54.4014 21.063C53.1681 20.3914 52.2211 19.966 52.3313 18.3541C52.6616 12.9139 48.7196 12.6453 44.5133 11.6155C46.3411 14.6826 52.5735 14.7945 48.3232 20.1003C47.2661 21.4212 49.8647 22.0928 51.2081 22.5629C59.6207 25.6076 62.2193 30.7568 60.1052 39.9356C59.8409 41.0998 60.0611 42.3535 60.0611 44.3907C55.4144 41.1446 48.6755 41.0102 50.085 32.6597C43.6324 40.6968 39.8225 39.958 34.2068 30.0404C33.9425 36.1521 37.7524 40.6297 42.8175 40.5625C52.089 40.4506 58.8059 45.6668 64.5317 52.3159C66.5578 54.6666 67.3065 57.9576 64.796 60.5545C63.3865 61.9873 64.1573 63.3306 64.0913 64.6962C64.0913 64.8305 65.0823 65.2111 65.5668 65.1439C68.1654 64.8081 66.2274 62.7485 66.8 61.6515C68.0553 59.2337 68.6279 56.6815 67.6148 54.1741C65.787 49.6966 68.3416 49.3832 71.5349 49.6518C77.9434 50.2115 86.8185 59.3904 85.9816 64.5171C85.6292 66.6887 84.9686 68.7259 83.1627 70.1587C81.7973 71.2557 80.3438 71.8154 83.2728 73.3378C85.5632 74.5243 85.0346 76.6735 82.9205 78.9794C74.2656 88.4941 63.7389 89.5463 53.7627 81.0614C51.8688 79.4495 49.3582 79.4943 47.6845 77.7929L47.5083 77.9944C54.0931 71.6587 55.8989 72.0169 59.2463 80.7704C58.2113 76.6287 61.4265 76.3153 64.2674 75.0168C59.929 72.5318 54.8859 73.3378 52.6836 68.8827C47.2881 72.6438 41.6063 71.0095 35.8805 70.002C34.0746 69.6886 32.7753 71.0542 32.0926 72.8005L32.2688 72.5542C29.4939 74.7034 23.5699 70.9423 23.1515 77.5914C23.1515 77.7705 22.4027 77.9048 22.0063 78.0391C17.6679 79.5615 2.31822 72.0393 1.96586 67.3603C1.4153 60.1068 -1.29346 52.898 0.754625 45.331C1.89979 46.8758 0.5344 48.9354 2.23013 50.1219C3.7717 46.025 3.19912 42.1296 0.864738 39.1968C-0.192341 37.8536 0.600468 36.2641 0.908783 34.8313C2.23013 28.518 6.19418 23.6599 9.69575 18.5332C10.951 20.5928 10.929 20.3466 13.7038 20.0779C15.9061 19.8764 19.6279 17.5258 20.0904 21.2869C20.9713 28.4285 24.2526 36.1074 18.0202 42.6221C14.1223 43.6743 10.7969 42.7341 8.35238 38.7939C6.12811 44.1893 7.07507 48.3086 9.73979 53.5024C10.4225 49.3608 8.06609 46.4952 10.1582 43.1147C13.1092 48.0399 15.6418 44.6146 18.3065 43.0027C20.8611 43.3161 20.9933 39.8685 23.1955 39.667C26.954 45.3833 30.0959 47.9504 32.6211 47.3683C23.2836 38.973 21.3677 28.2046 23.5038 16.1601C20.4868 17.6601 17.6459 18.3093 15.2454 15.1303C14.1663 13.6975 13.1092 14.5482 12.1623 15.4885L12.1402 15.4661ZM91.1128 28.8091C100.56 28.0479 100.869 36.2417 103.313 42.5997C105.516 38.7043 100.23 34.6746 104.701 31.3836C105.229 30.9806 103.71 28.3389 101.882 27.7345C99.9659 33.8686 98.3582 27.533 96.5964 27.533C94.6364 27.533 92.4342 26.1449 91.2229 28.9434C85.387 26.324 91.3331 25.2942 92.214 23.7271C86.9286 20.6824 85.1007 28.3165 80.3879 27.0181C82.3699 28.1822 85.2328 26.2345 86.334 29.0553C88.2719 34.0029 89.5933 29.7717 91.1349 28.8091H91.1128ZM53.5865 50.1219C48.2131 51.8458 42.9277 50.1891 37.6863 50.2563C40.3951 52.8532 45.5483 51.3756 46.165 55.1591C46.6715 58.2486 41.6063 57.2859 39.9106 59.4799C39.7344 59.7038 39.8225 60.1515 39.7344 61.0246C42.8175 59.3008 45.4162 59.771 48.0589 63.9126C48.7416 57.8232 50.2391 53.6592 53.5865 50.1219ZM77.3047 35.9059C73.2306 32.3463 66.3375 29.7941 73.9573 21.7794C65.6328 27.3091 68.8701 20.0108 67.5928 18.175C61.7348 21.9585 68.6059 24.9584 68.1434 28.227C67.1083 35.8835 72.68 34.988 77.3047 35.9059ZM71.2706 57.0397C73.671 62.9052 76.7322 68.7707 70.1254 73.7855C69.2225 74.4571 69.4207 75.3303 70.2135 75.8676C70.8742 76.3153 71.9533 76.9198 72.4378 76.6511C73.0104 76.3601 72.9883 75.0392 73.5169 74.4348C76.0715 71.5244 75.6531 66.8902 79.1106 64.5171C74.596 64.1589 76.0935 57.5098 71.2706 57.0397ZM5.90788 58.6516C8.39642 61.7187 10.5326 62.4798 12.911 62.2783C15.4436 62.0545 16.7209 63.6216 16.765 65.5693C16.9632 72.9348 20.5528 70.1811 24.605 68.1886C21.1034 66.3976 18.3946 64.4275 17.8 60.5993C17.5578 59.0322 16.5007 58.3829 15.0913 59.5471C12.3605 61.7858 9.69575 59.8605 5.88586 58.6516H5.90788ZM85.2989 50.5473C91.7515 50.0996 92.9847 44.7489 97.1029 43.6967C92.5002 44.5475 90.342 38.9058 85.5411 39.7565C87.9416 43.0251 93.9537 45.8235 85.2989 50.5473ZM4.01395 28.8986C6.28227 30.6672 8.06609 32.0329 9.34339 34.0029C10.4445 35.7268 12.1623 36.6447 14.2764 35.4581C16.4787 34.2268 16.787 32.1672 16.6328 29.906C16.5888 29.324 16.6769 28.4509 15.7299 28.6076C15.1573 28.6971 14.2984 28.9882 14.1663 29.4135C13.6818 30.8015 15.1353 33.3537 12.3605 33.2866C10.4445 33.2418 10.1582 30.9583 9.27732 29.5255C8.19822 27.7792 6.54654 27.7568 4.01395 28.8986ZM35.7483 55.3158C32.3349 51.6667 28.9214 49.4951 24.3187 52.7861C23.1295 53.6368 21.0373 53.1219 19.4077 53.4129C18.2625 53.6144 15.9501 52.3607 16.3686 54.9576C16.6769 56.883 18.2845 55.5173 19.4297 55.4278C24.8472 55.0024 30.2647 51.7562 35.7483 55.3158Z" fill="black"/>
<path d="M47.09 91.8299C39.1839 94.2701 31.3659 96.9566 22.8653 94.8298C15.4877 92.994 11.2814 88.6508 10.0482 81.3078C9.56369 78.4422 10.2464 76.5392 13.1313 77.7257C22.7772 81.6883 32.8414 79.7406 42.7075 80.5242C43.7646 80.6137 44.8437 80.5018 45.9008 80.569C48.4554 80.7481 51.3623 80.7481 52.5516 83.4793C53.5866 85.8524 50.8118 87.1061 49.9749 88.9643C49.0059 89.9045 48.059 90.8672 47.09 91.8075V91.8299Z" fill="black"/>
<path d="M47.0899 91.8297C48.0589 90.8894 49.0059 89.9268 49.9749 88.9865C52.8818 89.7029 55.4585 82.9195 57.7488 87.7104C59.3124 90.979 54.3794 92.2327 51.9789 94.0685C46.7376 98.0534 43.8086 103.785 40.8576 109.516C40.1308 110.926 39.6243 113.366 37.4881 112.493C35.4621 111.665 36.409 109.583 37.0477 108.016C39.5142 102.061 40.7695 95.3446 47.0679 91.8745L47.0899 91.8297Z" fill="black"/>
</svg>
