<svg width="144" height="85" viewBox="0 0 144 85" fill="none" xmlns="http://www.w3.org/2000/svg">
<path d="M0.949402 42.9581C6.9466 42.3259 11.8269 41.8395 16.7072 41.2802C18.2854 41.11 20.4221 41.2802 20.7863 39.2862C21.1748 37.1463 18.9167 36.8545 17.5085 36.3681C14.6677 35.3954 11.7298 34.7145 8.64621 33.8391C11.8997 30.8481 14.7405 30.2401 17.9212 33.5959C19.5237 35.2738 21.9517 36.4654 24.3069 35.2495C26.6135 34.058 23.4328 31.8208 24.5983 30.4104C29.1386 30.7751 26.2493 42.3016 35.1601 37.2679C36.884 40.2103 38.7293 43.9308 41.133 47.2623C43.9495 51.2017 48.1014 53.4875 52.7875 54.6548C61.8926 56.9163 64.3934 54.752 63.7621 45.5358C63.228 37.9001 62.8638 30.2401 68.3025 22.9936C68.7638 27.1762 66.3115 30.532 68.3511 34.4957C71.7503 31.0183 73.2314 26.2764 78.6216 22.4829C73.2799 32.2828 69.3466 40.8912 68.9824 50.6424C74.6639 50.3992 69.2737 42.3016 76.2664 41.8882C79.957 41.6693 83.3319 36.4168 86.8768 33.4257C88.018 36.587 87.4596 38.2406 84.0846 39.8941C79.2286 42.3016 75.4652 46.3869 73.8141 51.8826C73.1828 53.9739 72.8915 56.2597 74.9796 57.6215C77.2133 59.0805 79.0101 57.5485 80.4911 55.9922C84.7645 51.5178 89.4262 47.7243 95.7148 46.6544C92.7283 53.1228 84.6916 52.9769 80.8796 58.351C80.1027 59.4453 78.6216 60.5153 79.4957 61.9986C80.3697 63.5063 82.0208 62.8254 83.3319 62.4607C85.59 61.8284 87.7752 60.953 90.0332 60.418C90.9559 60.1991 92.7526 58.3267 92.8497 61.2934C92.9226 63.3847 91.7814 63.3847 90.1546 63.2631C88.5522 63.1415 86.8283 63.2145 85.2986 63.7008C83.2834 64.3574 81.4381 65.549 81.2196 68.0536C81.001 70.5097 82.4093 71.9201 84.376 73.063C87.9209 75.1057 91.9271 75.4461 95.9576 76.1513C92.4127 78.5831 91.4901 80.2853 96.8074 80.4069C98.6527 80.4555 100.498 80.4069 104.286 80.4069C93.8695 85.1244 85.4443 83.1304 78.8887 77.8779C66.1416 67.7132 49.8496 63.482 37.9038 52.1258C34.6988 49.0861 30.2313 49.0618 25.9337 50.7883C21.4176 52.6121 16.8043 54.1684 11.7055 55.36C17.5085 55.2384 11.2927 47.9432 16.7315 47.7486C20.4949 47.6027 24.404 48.8429 28.1189 46.5571C19.7422 42.9824 10.6615 44.6847 0.949402 42.9581Z" fill="black"/>
<path d="M103.897 84.4434C107.151 80.504 110.769 79.045 114.629 77.9264C118.514 76.7835 121.865 74.6192 124.997 72.1145C130.144 67.9806 133.446 64.4546 129.149 56.5757C123.807 46.7758 124.535 35.4683 129.634 25.3036C131.795 21.0238 130.994 18.5677 127.886 15.601C110.647 -0.86185 84.0118 1.47261 73.887 21.5831C73.6199 22.118 73.0615 22.5071 72.503 23.1151C73.8141 10.6159 79.2529 4.56092 91.9757 1.25376C114.945 -4.72831 139.298 11.3455 143.377 35.1765C147.48 59.1047 129.926 82.6926 106.568 84.6137C105.888 84.6623 105.208 84.5407 103.922 84.4434H103.897ZM133.519 23.9905C127.667 30.9696 126.235 44.6116 130.484 55.0437C131.237 56.9162 131.382 60.6854 134.272 59.6884C136.724 58.8373 136.675 55.9192 135.316 53.0984C131.868 46.0463 131.941 38.6052 134.709 31.383C135.85 28.3919 136.214 26.1061 133.543 23.9662L133.519 23.9905Z" fill="black"/>
</svg>
