<svg width="625" height="249" viewBox="0 0 625 249" fill="none" xmlns="http://www.w3.org/2000/svg">
<g filter="url(#filter0_d_7_540)">
<path d="M107.274 116.465L118.925 185.553C129.465 182.294 153.361 179.268 164.186 173.577C154.601 139.9 146.748 115.999 146.748 115.999C146.748 115.999 141.4 99.5487 122.697 102.109C122.697 102.135 107.842 102.937 107.274 116.465Z" fill="#219FA1"/>
<path d="M80.3037 62.8966L107.403 61.7067L108.876 95.436L81.7762 96.6258L80.3037 62.8966Z" fill="#F9B099"/>
<path d="M89.3971 81.2097C86.4262 75.6226 84.5662 69.9063 84.6954 62.6896L107.403 61.7067L108.695 91.0388C101.513 90.2369 92.5747 87.1589 89.3971 81.2097Z" fill="#F6917A"/>
<path d="M66.1985 99.3159L81.5437 91.6595H107.997L119.829 99.7039C119.829 99.7039 121.741 116.465 105.104 121.612C105.13 121.612 69.4793 127.768 66.1985 99.3159Z" fill="#F9B099"/>
<path d="M150.391 232.034H46.694C46.7973 230.482 46.8748 228.904 46.9782 227.352C47.8307 212.971 48.244 202.444 48.244 174.948L41.4756 123.94C38.9955 112.301 49.2515 105.343 49.2515 105.343L77.3069 93.7805L101.074 112.326L111.847 93.7805L134.244 101.954C134.244 101.954 145.792 108.628 146.076 123.294L146.025 184.725C147.032 200.478 149.099 212.635 150.106 228.361C150.184 229.499 150.261 230.715 150.391 232.034Z" fill="#219FA1"/>
<path d="M149.461 232.034C149.357 230.301 149.254 228.568 149.176 226.732L148.97 223.059C148.556 215.506 147.833 207.384 147.11 199.495C146.36 191.011 145.56 182.216 145.146 174.069C144.707 165.559 145.069 157.049 145.405 148.797C145.611 143.624 145.844 138.244 145.87 133.019C145.87 132.605 146.205 132.295 146.593 132.295C147.006 132.295 147.316 132.631 147.316 133.019C147.29 138.296 147.084 143.676 146.851 148.849C146.515 157.049 146.154 165.533 146.593 173.965C147.006 182.113 147.781 190.881 148.556 199.34C149.254 207.229 150.003 215.377 150.416 222.955L150.623 226.628C150.726 228.491 150.804 230.249 150.933 232.008H149.461V232.034Z" fill="#182040"/>
<path d="M91.6963 215.894C89.2421 220.058 86.7621 224.507 84.3854 228.801C83.7654 229.913 83.1712 230.974 82.577 232.06H80.8978C81.6212 230.767 82.3445 229.448 83.1195 228.103C85.5221 223.809 87.9763 219.36 90.4563 215.17C91.2571 213.799 92.213 212.247 93.2205 210.591C98.9814 201.073 107.713 186.717 108.566 178.104C108.617 177.69 108.979 177.405 109.367 177.457C109.78 177.509 110.064 177.871 110.012 178.259C109.108 187.208 100.635 201.176 94.4605 211.367C93.4272 212.997 92.4972 214.523 91.6963 215.894Z" fill="#182040"/>
<path d="M130.55 164.395C130.628 165.015 131.299 166.386 131.919 166.309L135.329 164.964C135.949 164.886 136.389 164.343 136.311 163.722C136.234 163.101 135.665 162.662 135.045 162.739L131.454 162.481C130.834 162.558 130.473 163.774 130.55 164.395Z" fill="#182040"/>
<path d="M126.003 164.912C126.081 165.533 125.745 167.007 125.125 167.085L121.483 166.567C120.863 166.645 120.294 166.205 120.217 165.584C120.139 164.964 120.578 164.421 121.224 164.343L124.66 163.282C125.306 163.205 125.926 164.291 126.003 164.912Z" fill="#182040"/>
<path d="M120.294 166.05C120.527 166.05 120.759 166.05 121.018 165.998L120.94 165.274C116.419 165.791 114.714 160.592 114.637 160.36C111.743 148.616 120.346 128.958 120.423 128.751C121.508 126.268 123.394 126.501 123.42 126.501H123.523L123.601 126.475C123.678 126.449 125.435 125.828 127.037 127.975C127.166 128.156 140.186 145.306 140.135 157.411C140.109 157.618 139.695 163.076 135.174 163.593L135.252 164.317C140.367 163.722 140.858 157.488 140.858 157.437C140.91 145.073 128.148 128.26 127.605 127.536C125.848 125.208 123.859 125.647 123.394 125.777C122.929 125.751 120.888 125.777 119.726 128.467C119.364 129.269 110.942 148.565 113.913 160.567C113.939 160.644 115.696 166.05 120.294 166.05Z" fill="#182040"/>
<path d="M124.298 126.423C124.324 126.423 124.324 126.423 124.298 126.423C124.531 126.423 124.686 126.242 124.66 126.035C124.531 123.371 122.929 99.7556 109.057 91.9182C108.876 91.8147 108.643 91.8923 108.566 92.0475C108.462 92.2286 108.54 92.4355 108.695 92.539C122.232 100.195 123.808 123.423 123.937 126.035C123.963 126.268 124.118 126.423 124.298 126.423Z" fill="#182040"/>
<path d="M81.5953 137.08C81.647 137.08 81.6728 137.08 81.7245 137.054C81.9054 136.977 82.0087 136.77 81.9312 136.589C77.5653 124.742 75.2919 116.206 74.5944 112.171C73.5611 106.067 73.0961 95.3325 81.6729 91.9958C81.8537 91.9182 81.957 91.7113 81.8795 91.5302C81.802 91.3491 81.5954 91.2457 81.4145 91.3233C72.3469 94.8411 72.7861 105.963 73.8711 112.301C74.5686 116.387 76.8678 124.975 81.2337 136.847C81.2853 137.003 81.4403 137.08 81.5953 137.08Z" fill="#182040"/>
<path d="M87.4855 142.486C90.1463 141.167 91.2314 137.96 89.9138 135.295C88.5963 132.631 85.3929 131.545 82.7321 132.864L80.2779 134.08L85.0054 143.676L87.4855 142.486Z" fill="#80AABF"/>
<path d="M78.0561 141.167C79.3737 143.831 82.577 144.918 85.2379 143.598C87.8729 142.279 88.9838 139.072 87.6663 136.434C86.3488 133.769 83.1454 132.683 80.4845 134.002C77.8495 135.295 76.7386 138.503 78.0561 141.167Z" fill="#93C3DA"/>
<path d="M80.4587 139.977C81.1045 141.296 82.7062 141.84 84.0496 141.193C85.3929 140.546 85.9096 138.943 85.2637 137.598C84.6179 136.278 83.0162 135.735 81.6729 136.382C80.3553 137.054 79.8128 138.658 80.4587 139.977Z" fill="#5A99B3"/>
<path d="M82.4995 144.504C82.5254 144.504 82.5254 144.504 82.5512 144.504C85.8837 144.116 87.3821 142.667 88.0796 141.503C88.9321 140.055 89.0354 138.192 88.3379 136.485C87.8213 135.192 86.6587 134.131 85.1346 133.562C83.4812 132.942 81.7245 132.968 80.3037 133.666C80.1228 133.743 80.0453 133.976 80.1487 134.157C80.2262 134.338 80.4587 134.416 80.6395 134.313C81.8537 133.718 83.4554 133.692 84.8762 134.235C86.1937 134.752 87.2013 135.658 87.6663 136.744C88.2604 138.244 88.1829 139.874 87.4596 141.115C86.6071 142.564 84.8762 143.469 82.4737 143.754C82.267 143.779 82.1378 143.961 82.1637 144.167C82.1637 144.374 82.3187 144.504 82.4995 144.504Z" fill="#182040"/>
<path d="M85.522 143.676C85.5479 143.676 85.5995 143.676 85.6254 143.65C88.2087 142.874 89.8363 141.581 90.4304 139.848C91.1796 137.753 90.5596 135.192 88.8804 133.511C87.0721 131.674 84.9537 131.597 81.6986 133.174C81.5178 133.252 81.4403 133.485 81.5436 133.666C81.6211 133.847 81.8536 133.925 82.0345 133.821C84.9795 132.373 86.8137 132.424 88.3637 134.002C89.8363 135.502 90.3788 137.753 89.7329 139.589C89.5263 140.158 88.9321 141.84 85.3929 142.926C85.1862 142.978 85.0829 143.185 85.1604 143.391C85.212 143.573 85.367 143.676 85.522 143.676Z" fill="#182040"/>
<path d="M78.7795 141.891C78.8828 141.891 78.9861 141.84 79.0636 141.762C79.1928 141.607 79.167 141.374 79.012 141.245C78.392 140.753 77.9786 139.563 78.0044 138.27C78.0303 137.106 78.392 136.149 78.9861 135.709C79.1411 135.58 79.1928 135.347 79.0636 135.192C78.9345 135.037 78.702 134.985 78.547 135.114C77.7719 135.709 77.3069 136.847 77.2811 138.27C77.2553 139.796 77.7719 141.193 78.5728 141.84C78.6245 141.865 78.702 141.891 78.7795 141.891Z" fill="#182040"/>
<path d="M135.717 102.963C135.717 102.963 149.9 104.489 158.037 130.226C158.037 130.226 179.324 167.266 172.737 196.96C172.737 196.96 150.339 211.212 114.611 215.299V187.364L151.346 171.973C151.372 171.973 150.881 132.424 135.717 102.963Z" fill="#1B8A8C"/>
<path d="M53.5658 103.558C53.5658 103.558 84.2562 128.467 92.7555 182.863H141.891L144.449 204.875C144.449 204.875 103.709 214.419 84.1271 213.1C84.1271 213.1 43.3356 171.844 36.9805 135.27C36.9547 135.295 30.9354 106.92 53.5658 103.558Z" fill="#1E9496"/>
<path d="M109.263 182.656L95.313 176.991C95.313 176.991 88.2088 174.87 85.3929 176.991L76.8936 187.312L74.7494 189.924C74.7494 189.924 87.5371 191.657 93.5305 185.165C99.5239 178.699 93.5305 184.105 93.5305 184.105L109.263 182.656Z" fill="#F9B099"/>
<path d="M142.692 189.924C142.692 189.924 140.135 176.112 151.243 167.085L151.372 171.973C151.372 171.973 159.2 189.407 143.7 198.848L142.692 189.924Z" fill="#F9B099"/>
<path d="M72.0627 54.516C71.701 53.4813 71.4168 52.6019 71.1585 51.9294C67.0509 40.6777 65.7593 23.1147 78.9603 18.9244C94.7705 13.9322 93.0138 39.4361 93.5563 46.5492C94.1763 54.8005 95.2872 57.982 91.5413 65.509C90.1463 68.3543 88.5963 70.915 85.2637 70.4494C81.5695 69.9838 73.716 59.4305 72.0627 54.516Z" fill="#21161F"/>
<path d="M106.112 23.1664C100.376 21.7696 102.211 26.3479 103.864 31.8315L111.872 35.3751C118.615 38.298 114.843 42.4624 115.722 48.3081C116.083 50.7137 116.988 53.0416 117.478 55.3695C119.003 52.9123 121.508 41.2209 121.586 38.4273C121.586 38.4273 123.575 26.3221 115.308 23.7872C115.308 23.7872 109.651 22.7008 106.112 23.1664Z" fill="#21161F"/>
<path d="M80.3037 62.8965C82.1378 68.9492 86.7363 76.0106 91.9547 79.8646C97.0439 83.6152 102.469 85.7879 108.023 81.9339C112.441 78.8817 115.541 74.1224 117.478 69.2337C121.922 57.982 120.63 41.764 114.094 31.8315C106.912 20.9161 91.1538 21.8731 84.1787 32.7627C78.4695 41.6347 77.3586 53.1451 80.3037 62.8965Z" fill="#F9B099"/>
<path d="M91.5413 57.5423C91.5155 58.4735 93.1689 59.2495 95.2614 59.3012C97.3281 59.3529 99.0331 58.6545 99.0589 57.7492C99.0848 56.8439 97.4314 56.0421 95.3389 55.9903C93.2722 55.9386 91.5672 56.637 91.5413 57.5423Z" fill="#F6917A"/>
<path d="M109.987 57.5423C109.961 58.4476 111.614 59.2495 113.707 59.3012C115.773 59.3529 117.478 58.6545 117.504 57.7492C117.53 56.8439 115.877 56.0421 113.784 55.9903C111.692 55.9386 110.012 56.637 109.987 57.5423Z" fill="#F6917A"/>
<path d="M105.595 62.3275C106.912 62.3275 108.282 62.0171 108.953 61.1894C109.289 60.8014 109.702 59.9478 108.979 58.7321C104.226 50.8171 105.776 49.6532 106.912 48.7737C107.171 48.5668 107.429 48.3599 107.636 48.1271C107.894 47.8167 107.868 47.3511 107.584 47.0924C107.274 46.8338 106.809 46.8596 106.551 47.1442C106.422 47.2994 106.215 47.4287 106.034 47.5839C104.071 49.0841 102.727 51.1275 107.739 59.4564C108.049 59.9737 107.894 60.1289 107.842 60.2065C107.3 60.8531 105.078 61.0083 103.709 60.5169C103.321 60.3617 102.908 60.5686 102.753 60.9566C102.624 61.3446 102.805 61.7585 103.192 61.9136C103.812 62.1982 104.691 62.3275 105.595 62.3275Z" fill="#F6917A"/>
<path d="M115.567 47.9978C115.877 47.9978 116.161 47.8426 116.342 47.5839C116.652 47.1442 116.523 46.5493 116.109 46.2647C114.43 45.1008 111.201 44.3507 107.713 46.0837C107.248 46.3165 107.042 46.8855 107.274 47.3511C107.507 47.8167 108.075 48.0236 108.54 47.7908C112.157 45.9802 114.74 47.6356 115.024 47.8167C115.179 47.946 115.386 47.9978 115.567 47.9978Z" fill="#21161F"/>
<path d="M92.5488 47.9978C92.7555 47.9978 92.9622 47.9202 93.143 47.7908C94.7189 46.5493 97.6898 46.2647 99.3689 47.7391C99.7564 48.0754 100.376 48.0495 100.712 47.6615C101.048 47.2735 101.022 46.6527 100.635 46.3165C98.1806 44.1696 94.1764 44.5834 91.9805 46.3165C91.5672 46.6527 91.4897 47.2476 91.8255 47.6615C91.9805 47.8684 92.2647 47.9978 92.5488 47.9978Z" fill="#21161F"/>
<path d="M124.531 25.2616C124.014 31.1331 121.793 36.5133 107.326 38.9705C103.425 39.6431 99.4206 38.4532 95.5714 37.5996C94.0214 37.2634 91.8772 36.177 90.3013 36.2029C84.5921 36.2805 84.9279 51.5931 84.3595 56.9474C82.7062 56.8181 82.267 57.4647 81.6728 55.6024C81.2078 54.2056 80.8203 49.0324 79.7611 47.9202C77.2294 45.256 74.6202 48.2823 73.9744 50.0412C74.5169 48.5409 74.3361 46.2906 74.5169 44.6869C74.9819 40.9881 77.3069 35.0389 75.9636 31.8833C74.8527 29.2449 72.631 27.2274 72.1402 24.1493C71.3652 19.1831 77.2036 18.8727 80.4587 18.1743C81.9828 17.838 84.8504 17.5276 85.7546 15.9757C86.9946 13.9323 85.4446 12.432 88.7513 11.863C101.126 9.69025 113.422 13.3891 113.422 13.3891C113.422 13.3891 118.796 16.4154 122.878 11.1905C122.878 11.1905 121.948 18.2002 117.478 19.4159C117.478 19.4159 121.56 21.4075 124.505 18.3295C124.505 18.3036 124.763 22.6491 124.531 25.2616Z" fill="#21161F"/>
<path d="M112.467 49.4721C113.216 49.5238 113.758 50.455 113.681 51.5931C113.603 52.7054 112.932 53.5848 112.182 53.5331C111.433 53.4813 110.891 52.5502 110.968 51.4379C111.046 50.2998 111.717 49.4204 112.467 49.4721Z" fill="#182040"/>
<path d="M94.7705 51.4121C94.848 50.2998 95.5197 49.4204 96.2689 49.4721C97.0181 49.5238 97.5606 50.455 97.4831 51.5673C97.4056 52.6795 96.7339 53.5589 95.9847 53.5072C95.2097 53.4813 94.693 52.5243 94.7705 51.4121Z" fill="#182040"/>
<path d="M105.13 68.0956C105.492 68.0956 105.802 67.837 105.853 67.4748C105.905 67.0868 105.647 66.6989 105.233 66.6471C103.141 66.3109 102.495 65.716 102.314 65.2762C102.159 64.8882 101.746 64.7072 101.358 64.8624C100.971 65.0176 100.79 65.4314 100.945 65.8194C101.41 67.0092 102.753 67.7594 105.001 68.0956C105.052 68.0956 105.078 68.0956 105.13 68.0956Z" fill="#F6917A"/>
<path d="M72.0885 51.9294C71.6752 55.3696 73.1736 59.4823 76.1186 61.2411C80.097 63.6208 82.1379 59.9478 82.5512 56.1714C82.887 53.1192 82.112 47.7391 78.7795 46.2906C75.6019 44.9197 72.4244 49.11 72.0885 51.9294Z" fill="#F9B099"/>
<path d="M78.4694 60.0772C78.7795 60.0772 79.0378 59.8961 79.167 59.5857C80.7945 55.2402 80.1745 50.9206 77.7203 49.3428C77.3844 49.1359 76.9194 49.2135 76.7128 49.5756C76.5061 49.9118 76.5836 50.3774 76.9453 50.5844C78.7536 51.7483 79.1411 55.473 77.7978 59.0684C77.6686 59.4564 77.8494 59.8702 78.2369 60.0254C78.3144 60.0513 78.3919 60.0772 78.4694 60.0772Z" fill="#F6917A"/>
<path d="M79.1153 54.2056C79.3478 54.2056 79.5545 54.1021 79.7095 53.9211C79.942 53.5848 79.8903 53.1451 79.5545 52.8864C78.3661 52.007 76.4544 52.188 75.0336 52.6536C74.6461 52.783 74.4394 53.1968 74.5686 53.5848C74.6977 53.9728 75.1111 54.1797 75.4986 54.0504C76.5578 53.6883 78.0044 53.5589 78.6761 54.0504C78.8053 54.1539 78.9603 54.2056 79.1153 54.2056Z" fill="#F6917A"/>
<path d="M120.062 57.4905C120.062 57.4905 99.1622 52.7829 85.5995 58.8873C85.5995 58.8873 86.6587 72.9843 90.9471 80.0457C90.9471 80.0457 103.631 91.556 114.094 76.7348C114.094 76.7348 120.475 65.6383 120.062 57.4905Z" fill="#63C7CB"/>
<path d="M89.7846 63.4656L89.2163 64.6296L82.8612 56.8956L84.2045 56.9215L89.7846 63.4656Z" fill="#63C7CB"/>
<path d="M80.4845 67.1386L91.6963 78.9852L90.9213 80.0457L80.562 69.0009C80.562 68.9751 80.5103 67.6559 80.4845 67.1386Z" fill="#63C7CB"/>
<path d="M102.34 65.3797C100.118 65.3021 97.8706 65.0434 95.5972 64.6296C95.3905 64.6037 95.2614 64.3968 95.2872 64.1898C95.313 63.9829 95.5197 63.8536 95.7264 63.8794C102.211 65.0693 108.514 64.8623 114.456 63.3104C114.662 63.2587 114.869 63.388 114.921 63.5949C114.972 63.8018 114.843 64.0088 114.637 64.0605C110.71 65.0951 106.577 65.5349 102.34 65.3797Z" fill="#2BB2BC"/>
<path d="M103.399 70.2942C101.668 70.2166 100.144 69.9838 98.5939 69.6217C98.3873 69.57 98.2581 69.363 98.3097 69.1561C98.3614 68.9492 98.5681 68.8199 98.7748 68.8716C101.901 69.5958 104.846 69.8804 109.883 69.0009C110.09 68.9492 110.297 69.1044 110.322 69.3113C110.348 69.5182 110.219 69.7252 110.012 69.751C107.326 70.2166 105.233 70.346 103.399 70.2942Z" fill="#2BB2BC"/>
<path d="M103.606 74.9501C100.867 74.8466 98.1547 74.3034 95.8297 73.3205C95.6489 73.2429 95.5455 73.0101 95.623 72.8291C95.7005 72.6222 95.933 72.5446 96.1139 72.6222C100.816 74.6138 107.171 74.7432 111.95 72.9584C112.157 72.8808 112.363 72.9843 112.441 73.1912C112.518 73.3981 112.415 73.6051 112.208 73.6827C109.651 74.6397 106.602 75.0536 103.606 74.9501Z" fill="#2BB2BC"/>
<path d="M244.219 135.089L270.776 199.986C270.776 199.986 278.087 214.911 288.73 208.212C288.73 208.212 289.996 204.616 283.331 182.268L271.732 129.062C271.732 129.062 261.708 99.7556 243.03 115.146C243.056 115.146 238.432 122.725 244.219 135.089Z" fill="#F9B099"/>
<path d="M288.704 232.215L288.859 230.353C293.122 207.953 282.866 199.469 282.866 199.469C270.827 197.477 267.805 211.057 267.805 211.057L270.801 232.215H288.704Z" fill="#F9B099"/>
<path d="M272.326 129.786L287.826 191.58C287.826 191.58 292.088 204.099 276.433 211.057C276.433 211.057 252.485 179.604 244.529 142.719C244.529 142.719 236.778 119 255.043 109.636C255.043 109.636 267.856 111.938 272.326 129.786Z" fill="white"/>
<path d="M248.378 194.27C265.17 153.686 257.988 110.671 257.988 110.671C245.794 106.481 240.473 104.334 240.473 104.334L221.304 104.205C221.304 104.205 200.611 110.024 186.17 116.853L206.062 193.959L248.378 194.27Z" fill="#F9B099"/>
<path d="M186.945 119.905L206.062 193.985L248.378 194.296C260.442 165.145 260.132 134.752 258.995 119.931H186.945V119.905Z" fill="#F79246"/>
<path d="M270.052 232.215C266.41 221.145 261.811 211.755 257.497 204.099C257.497 204.099 240.137 209.634 204.151 204.72C200.663 208.832 195.987 219.101 191.879 232.241H270.052V232.215Z" fill="white"/>
<path d="M212.908 44.2213C208.904 43.5488 205.778 40.8846 205.804 35.2976C205.804 31.7022 207.457 27.6413 210.48 25.365C216.602 20.6833 225.386 18.614 230.63 25.9858C233.782 30.4089 231.353 36.3322 227.659 39.6948C224.042 42.9539 217.791 45.0491 212.908 44.2213Z" fill="#011C47"/>
<path d="M205.726 55.8869C204.796 63.3621 206.915 71.2771 210.221 78.0799C211.642 81.0027 215.724 85.7879 217.558 88.478C218.695 90.1593 220.865 91.9699 222.647 93.0046C225.644 94.7376 228.951 89.2281 231.973 88.5815C235.926 87.702 241.119 87.9866 243.857 85.0896C252.305 76.2434 257.936 67.6042 258.143 53.0675C258.298 42.8246 253.519 37.0564 245.562 34.9096C237.941 32.8662 228.434 34.9354 220.529 36.0477C212.417 37.1858 206.656 48.4633 205.726 55.8869Z" fill="#072552"/>
<path d="M241.351 107.8L219.78 107.774V75.7261H241.377L241.351 107.8Z" fill="#F9B099"/>
<path d="M225.67 93.2115C222.777 87.909 221.898 82.115 221.562 75.752H241.377L241.351 103.61C235.693 102.549 228.589 98.5658 225.67 93.2115Z" fill="#F6917A"/>
<path d="M210.221 68.225C210.17 72.2083 212.391 76.6831 215.957 78.3386C220.813 80.563 222.647 76.1141 222.647 71.7686C222.647 68.2508 221.072 62.2241 217.119 60.9825C213.347 59.8185 210.247 64.9917 210.221 68.225Z" fill="#F9B099"/>
<path d="M220.167 79.0111C222.467 84.7274 225.567 89.4351 230.966 92.72C236.236 95.9533 241.687 97.5828 246.75 93.3667C250.78 90.0041 253.39 85.1154 254.862 80.2009C258.22 68.8716 255.585 53.2227 248.378 44.1179C240.473 34.1336 225.231 36.4098 219.367 47.5839C214.613 56.7146 216.473 69.7769 220.167 79.0111Z" fill="#F9B099"/>
<path d="M216.06 74.8984C215.982 74.8984 215.931 74.8984 215.853 74.8725C215.466 74.7691 215.233 74.3552 215.337 73.9672C216.344 70.3719 215.647 66.8023 213.786 65.8194C213.425 65.6384 213.296 65.1728 213.476 64.8107C213.683 64.4485 214.122 64.3192 214.484 64.5003C217.016 65.8194 217.972 69.9839 216.757 74.3552C216.68 74.6656 216.37 74.8984 216.06 74.8984Z" fill="#F6917A"/>
<path d="M212.417 69.3631C212.133 69.3631 211.849 69.2079 211.746 68.9233C211.591 68.5353 211.746 68.1215 212.133 67.9404C213.476 67.3714 215.337 67.0093 216.551 67.7852C216.887 67.9922 217.016 68.4577 216.783 68.794C216.577 69.1561 216.112 69.2596 215.776 69.0268C215.078 68.5871 213.709 68.8716 212.727 69.2855C212.624 69.3372 212.521 69.3631 212.417 69.3631Z" fill="#F6917A"/>
<path d="M247.344 65.5866C247.422 66.8541 248.094 67.837 248.843 67.7852C249.592 67.7335 250.135 66.673 250.057 65.4314C249.98 64.164 249.308 63.1811 248.559 63.2328C247.809 63.2845 247.267 64.3192 247.344 65.5866Z" fill="#182040"/>
<path d="M231.018 65.5866C231.095 66.8541 231.767 67.837 232.516 67.7852C233.265 67.7335 233.833 66.673 233.756 65.4314C233.678 64.164 233.007 63.1811 232.258 63.2328C231.483 63.2845 230.914 64.3192 231.018 65.5866Z" fill="#182040"/>
<path d="M240.938 75.2088C240.576 75.2088 240.266 74.9501 240.214 74.5621C240.163 74.1483 240.447 73.7861 240.86 73.7344C243.03 73.424 243.805 72.467 243.986 72.1566C244.115 71.9497 244.193 71.7427 244.167 71.5875C243.883 71.3806 243.004 71.0185 242.514 70.8116C241.635 70.4494 241.144 70.2425 240.886 69.958C240.809 69.8804 240.757 69.8028 240.731 69.6993L239.775 67.0869C239.646 66.6989 239.827 66.285 240.214 66.1298C240.602 65.9746 241.015 66.1815 241.17 66.5695L242.049 68.9751C242.255 69.0785 242.746 69.2855 243.082 69.4407C244.529 70.0356 245.355 70.3977 245.562 71.0444C245.743 71.6393 245.639 72.3118 245.226 72.9584C244.503 74.1224 242.953 74.9501 241.041 75.2088C240.989 75.2088 240.964 75.2088 240.938 75.2088Z" fill="#F6917A"/>
<path d="M228.693 71.0185C228.744 71.9238 230.423 72.5446 232.438 72.4152C234.453 72.2859 236.055 71.4582 236.003 70.5787C235.952 69.6734 234.273 69.0527 232.258 69.182C230.217 69.2854 228.641 70.1132 228.693 71.0185Z" fill="#F6917A"/>
<path d="M246.724 71.0185C246.776 71.9238 248.455 72.5446 250.47 72.4152C252.485 72.2859 254.087 71.4582 254.035 70.5787C253.984 69.6734 252.305 69.0527 250.29 69.182C248.274 69.2854 246.673 70.1132 246.724 71.0185Z" fill="#F6917A"/>
<path d="M228.796 62.1723C228.641 62.1723 228.486 62.1206 228.357 62.0171C228.021 61.7585 227.969 61.2929 228.228 60.9825C229.7 59.0425 233.678 58.7063 235.797 60.31C236.133 60.5686 236.184 61.0342 235.952 61.3446C235.693 61.6809 235.228 61.7326 234.918 61.4998C233.317 60.2841 230.32 60.698 229.416 61.8878C229.235 62.0689 229.028 62.1723 228.796 62.1723Z" fill="#072552"/>
<path d="M245.433 62.1723C245.278 62.1723 245.123 62.1206 244.994 62.0171C244.658 61.7585 244.606 61.2929 244.864 60.9825C246.337 59.0425 250.315 58.7063 252.434 60.31C252.77 60.5686 252.821 61.0342 252.589 61.3446C252.356 61.6809 251.891 61.7326 251.555 61.4998C249.954 60.2841 246.957 60.698 246.053 61.8878C245.872 62.0689 245.665 62.1723 245.433 62.1723Z" fill="#072552"/>
<path d="M222.363 69.0268C220.193 68.613 219.651 68.613 219.134 67.2938C219.057 67.1127 218.54 65.1469 218.54 65.1469C217.558 62.6638 216.706 62.1465 214.277 62.043C212.546 61.9913 210.919 64.6037 210.428 66.3368C210.299 64.5003 210.351 61.8619 210.325 59.922C210.299 58.0596 210.402 56.068 210.635 54.1797C211.151 49.7567 211.513 47.3253 213.606 43.1608C215.879 38.686 219.418 35.22 224.43 33.9525C230.501 32.4265 240.395 31.1849 245.562 34.9096C248.197 36.8237 246.001 37.3151 245.614 45.644C245.639 45.644 221.847 39.9017 222.363 69.0268Z" fill="#072552"/>
<path d="M255.482 60.7238C258.892 53.352 259.796 39.85 246.13 34.4957C242.772 33.1766 234.531 32.1678 231.689 35.1165C225.438 41.6347 239.026 44.6611 242.669 45.1267C248.481 45.8768 251.995 49.9119 255.482 60.7238Z" fill="#072552"/>
<path d="M238.742 81.3131C236.003 81.3131 233.859 79.4508 232.981 77.2263C232.826 76.8383 233.033 76.4245 233.394 76.2693C233.782 76.1141 234.195 76.321 234.35 76.6831C235.177 78.7783 237.45 80.4596 240.214 79.606C240.602 79.4767 241.015 79.7094 241.144 80.0974C241.274 80.4854 241.041 80.8993 240.654 81.0286C240.008 81.2355 239.362 81.3131 238.742 81.3131Z" fill="#F6917A"/>
<path d="M256.18 72.7515C256.18 72.7515 240.447 66.8282 224.352 73.036C224.352 73.036 224.068 84.5205 227.84 91.5302C227.84 91.5302 242.074 103.17 250.935 89.1247C250.935 89.1505 256.18 80.6148 256.18 72.7515Z" fill="white"/>
<path d="M221.175 68.794L226.962 76.6055L227.582 75.5192L222.389 68.0956C222.389 68.0956 222.389 68.0956 222.389 69.0268L221.175 68.794Z" fill="white"/>
<path d="M219.78 78.6231L228.667 90.5732L227.866 91.5561L219.78 80.563C219.78 80.5372 219.78 79.1145 219.78 78.6231Z" fill="white"/>
<path d="M240.292 79.2956C238.148 79.2956 235.978 79.1404 233.782 78.8042C233.575 78.7783 233.446 78.5714 233.472 78.3903C233.498 78.1834 233.704 78.054 233.885 78.0799C240.189 79.0111 246.234 78.5972 251.917 76.8901C252.124 76.8383 252.33 76.9418 252.382 77.1487C252.434 77.3557 252.33 77.5626 252.124 77.6143C248.326 78.7266 244.374 79.2956 240.292 79.2956Z" fill="#BED8E6"/>
<path d="M241.454 83.9773C239.775 83.9773 238.303 83.7704 236.804 83.4859C236.598 83.4342 236.468 83.2531 236.52 83.0462C236.546 82.8392 236.753 82.7099 236.959 82.7616C240.008 83.3566 242.849 83.5376 247.654 82.5288C247.861 82.4771 248.042 82.6064 248.094 82.8134C248.145 83.0203 248.016 83.2014 247.809 83.2531C245.252 83.7704 243.237 83.9773 241.454 83.9773Z" fill="#BED8E6"/>
<path d="M241.816 88.478C239.181 88.478 236.546 88.0383 234.273 87.1589C234.092 87.0813 233.988 86.8743 234.066 86.6933C234.143 86.5122 234.35 86.4087 234.557 86.4863C239.129 88.2452 245.278 88.1676 249.799 86.2794C249.98 86.2018 250.212 86.2794 250.29 86.4863C250.367 86.6674 250.264 86.9002 250.083 86.9778C247.629 87.9607 244.709 88.478 241.816 88.478Z" fill="#BED8E6"/>
<path d="M256.076 28.8569L252.537 44.3765C245.536 50.3774 221.847 45.9026 221.847 45.9026L216.938 28.8569L237.45 19.5969L256.076 28.8569Z" fill="#ECE9E9"/>
<path d="M249.256 42.3849C251.349 38.117 254.759 30.8228 255.87 28.7535L256.076 28.857L252.537 44.3766C245.536 50.3775 221.847 45.9027 221.847 45.9027L216.938 28.857L236.624 19.9591C234.66 21.899 231.302 23.9424 229.261 25.8048C227.453 27.4602 225.825 28.0293 225.102 30.4865C224.327 33.1507 226.161 37.729 226.652 40.3156C226.962 41.8676 227.814 42.1262 229.364 42.6177C229.338 42.6177 238.613 44.5576 249.256 42.3849Z" fill="#ECD7D1"/>
<path d="M239.853 27.7188H235.022V42.359H239.853V27.7188Z" fill="#F79246"/>
<path d="M244.761 32.6334H230.139V37.4703H244.761V32.6334Z" fill="#F79246"/>
<path d="M247.577 107.024L257.962 110.671C257.962 110.671 264.963 124.82 270.853 145.409C272.429 152.936 269.406 154.954 265.092 171.818C262.38 182.397 261.553 192.925 259.641 202.65C257.239 214.911 210.092 210.721 202.187 204.332C199.526 202.185 190.639 163.308 189.839 160.36C188.134 154.074 197.46 153.738 200.947 141.581C203.091 134.131 204.409 121.871 194.515 111.964L216.783 105.55C216.783 105.55 216.163 129.527 239.879 135.761C239.853 135.735 254.32 123.061 247.577 107.024Z" fill="white"/>
<path d="M175.604 132.709L157.908 201.176C157.908 201.176 155.635 208.186 160.517 209.272C160.517 209.272 173.615 210.902 181.365 186.2L200.921 141.555C200.921 141.555 210.841 109.455 187.074 116.362C187.074 116.362 178.756 119.414 175.604 132.709Z" fill="white"/>
<path d="M198.157 111.188C198.157 111.188 180.358 113.258 175.139 128.415L152.328 205.004C152.328 205.004 171.006 221.817 184.465 188.993L205.158 135.735C205.158 135.709 208.697 116.413 198.157 111.188Z" fill="white"/>
<path d="M196.375 157.618C196.271 157.618 196.168 157.592 196.065 157.54C195.677 157.385 195.522 156.945 195.703 156.557C202.471 141.503 207.612 128.182 202.058 117.732C201.877 117.37 202.006 116.931 202.368 116.724C202.73 116.517 203.169 116.672 203.375 117.034C209.24 128.079 203.996 141.736 197.072 157.178C196.943 157.463 196.659 157.618 196.375 157.618Z" fill="#182040"/>
<path d="M178.859 199.469C178.73 199.469 178.575 199.443 178.472 199.34C178.136 199.107 178.033 198.667 178.239 198.331C182.812 191.244 193.068 164.809 195.677 156.661C195.806 156.273 196.22 156.066 196.607 156.169C196.995 156.299 197.201 156.712 197.098 157.1C194.411 165.559 184.207 191.813 179.479 199.133C179.35 199.34 179.118 199.469 178.859 199.469Z" fill="#182040"/>
<path d="M181.572 232.215L176.276 211.471C176.276 211.471 171.626 195.848 159.226 201.073C159.226 201.073 154.136 214.497 162.817 232.215H181.572Z" fill="#F9B099"/>
<path d="M161.99 232.215H184.698L178.472 199.34C178.472 199.34 160.698 184.777 154.963 196.132C154.963 196.132 150.597 204.099 153.103 211.729L161.99 232.215Z" fill="white"/>
<path d="M230.062 145.409H208.129V150.168H230.062V145.409Z" fill="#F79246"/>
<path d="M236.081 210.669C226.6 210.669 216.783 210.669 207.276 207.668C206.889 207.539 206.656 207.125 206.786 206.737C206.915 206.349 207.328 206.142 207.716 206.246C216.99 209.169 226.678 209.169 236.081 209.169C236.494 209.169 236.83 209.505 236.83 209.919C236.83 210.333 236.494 210.669 236.081 210.669Z" fill="#182040"/>
<path d="M250.393 210.669C249.98 210.669 249.67 210.359 249.644 209.945C249.644 209.531 249.954 209.195 250.367 209.195C255.172 209.091 258.556 203.09 258.944 202.392C262.044 190.752 262.871 181.673 263.361 176.241L263.387 175.776C264.007 169.025 264.601 165.972 267.133 160.075C272.171 148.306 270.466 143.986 267.366 136.175C265.841 132.295 263.93 127.484 262.354 120.526C262.251 120.138 262.509 119.724 262.922 119.647C263.31 119.569 263.723 119.802 263.801 120.216C265.351 127.044 267.236 131.829 268.735 135.658C271.861 143.573 273.772 148.358 268.502 160.696C266.048 166.412 265.48 169.387 264.86 175.957L264.834 176.422C264.343 181.906 263.491 191.114 260.339 202.909C260.313 202.961 260.313 203.013 260.287 203.064C260.132 203.297 256.36 210.54 250.393 210.669Z" fill="#182040"/>
<path d="M290.926 232.215C291.649 205.03 287.826 191.58 287.826 191.58C271.266 184.311 265.066 193.546 265.066 193.546L268.941 232.215H290.926Z" fill="#F4F4F4"/>
<path d="M401.727 205.056C395.527 202.599 402.063 183.406 404.233 178.44C422.962 135.606 429.446 105.446 437.765 98.6951C438.876 96.7551 467.939 85.6328 465.148 114.059C464.683 123.707 428.206 195.02 420.637 208.444C420.611 208.419 414.566 211.212 401.727 205.056Z" fill="#F9B099"/>
<path d="M421.283 122.906L403.509 164.834C403.509 164.834 390.024 195.874 398.963 205.884C398.963 205.884 410.484 214.213 422.239 208.315L467.189 122.699C467.189 122.699 476.877 84.5205 442.027 95.2549C442.027 95.2549 427.07 98.5399 421.283 122.906Z" fill="white"/>
<path d="M505.707 45.3336C506.095 49.3169 504.261 53.9987 500.825 55.9386C496.149 58.577 493.927 54.2832 493.566 49.9119C493.281 46.3941 494.315 40.2121 498.19 38.6343C501.832 37.1599 505.397 42.0486 505.707 45.3336Z" fill="#F9B099"/>
<path d="M497.699 54.6195L468.171 53.171L466.389 89.9524L495.916 91.375L497.699 54.6195Z" fill="#F9B099"/>
<path d="M487.701 74.5363C490.956 68.4578 493.023 62.2499 492.92 54.3867L468.171 53.1968L466.621 85.1413C474.449 84.3136 484.214 81.0028 487.701 74.5363Z" fill="#F6917A"/>
<path d="M454.402 94.5306L467.344 85.8138L495.116 87.1847L509.66 97.2466L454.402 94.5306Z" fill="#F9B099"/>
<path d="M534.409 232.552C534.409 232.5 534.409 232.474 534.409 232.422C533.556 216.747 535.029 198.719 531.722 183.329L540.919 119.724C543.683 107.05 532.678 102.342 532.678 102.342L496.201 85.3741C479.9 96.4447 466.673 84.0808 466.673 84.0808L439.366 96.5482C439.366 96.5482 429.679 102.239 426.889 118.508L426.63 185.475C425.468 202.495 423.195 215.635 422.032 232.577H534.409V232.552Z" fill="#F79246"/>
<path d="M495.684 56.7663C493.669 63.3363 490.621 68.8458 484.937 73.0102C479.357 77.097 473.441 79.4249 467.422 75.1829C462.617 71.8203 459.258 66.6213 457.192 61.2929C452.412 49.0065 453.885 31.3401 461.067 20.554C468.946 8.70736 486.125 9.81959 493.669 21.7438C499.817 31.4436 498.939 46.1613 495.684 56.7663Z" fill="#F9B099"/>
<path d="M499.301 54.8522C498.965 54.8522 498.655 54.6453 498.551 54.3091C496.872 49.4721 498.784 44.6611 499.972 43.1091C500.231 42.747 500.747 42.6952 501.083 42.9539C501.445 43.2126 501.496 43.7299 501.238 44.0661C500.256 45.3594 498.629 49.6015 500.076 53.7917C500.231 54.2056 499.998 54.6712 499.585 54.8005C499.456 54.8522 499.378 54.8522 499.301 54.8522Z" fill="#F6917A"/>
<path d="M502.814 48.3599C502.711 48.3599 502.582 48.334 502.478 48.2823C501.471 47.8167 500.644 47.8167 499.223 48.2047C498.81 48.334 498.345 48.0754 498.241 47.6615C498.112 47.2218 498.371 46.7821 498.784 46.6786C500.566 46.1871 501.781 46.2389 503.124 46.8338C503.537 47.0149 503.692 47.4804 503.512 47.8943C503.434 48.1788 503.124 48.3599 502.814 48.3599Z" fill="#F6917A"/>
<path d="M485.48 48.722C485.505 49.7308 483.671 50.5844 481.424 50.6361C479.15 50.6878 477.316 49.9118 477.29 48.9289C477.264 47.9202 479.099 47.0666 481.346 47.0148C483.594 46.9631 485.454 47.7391 485.48 48.722Z" fill="#F6917A"/>
<path d="M465.381 50.3257C465.407 51.3345 463.573 52.188 461.325 52.2398C459.052 52.2915 457.218 51.5155 457.192 50.5326C457.166 49.5238 458.974 48.6703 461.248 48.6185C463.521 48.5668 465.355 49.3428 465.381 50.3257Z" fill="#F6917A"/>
<path d="M470.186 53.8693C468.739 53.8693 467.215 53.5072 466.492 52.6278C466.13 52.1881 465.665 51.2828 466.466 49.9636C471.684 41.3761 470.005 40.0828 468.791 39.1257C468.507 38.8929 468.223 38.686 468.016 38.4274C467.732 38.0911 467.758 37.5996 468.094 37.2893C468.429 37.0047 468.92 37.0306 469.23 37.3669C469.385 37.5479 469.592 37.6772 469.799 37.8583C471.917 39.5137 473.389 41.7382 467.887 50.7913C467.551 51.3345 467.706 51.5414 467.758 51.619C468.352 52.3174 470.78 52.5243 472.253 51.9811C472.666 51.8259 473.131 52.0329 473.286 52.4467C473.441 52.8606 473.234 53.3262 472.821 53.4814C472.072 53.7141 471.142 53.8693 470.186 53.8693Z" fill="#F6917A"/>
<path d="M484.446 38.298C484.214 38.298 483.981 38.2204 483.8 38.0652C482.095 36.7202 478.84 36.384 477.032 37.9618C476.593 38.3239 475.947 38.298 475.559 37.8583C475.172 37.4186 475.224 36.7719 475.663 36.384C478.349 34.056 482.715 34.5216 485.092 36.4357C485.531 36.7978 485.609 37.4445 485.247 37.8842C485.066 38.1687 484.756 38.298 484.446 38.298Z" fill="#0C2B34"/>
<path d="M466.931 38.298C466.699 38.298 466.466 38.2204 466.285 38.0652C464.58 36.7202 461.325 36.384 459.517 37.9618C459.078 38.3239 458.432 38.298 458.044 37.8583C457.657 37.4186 457.708 36.7719 458.148 36.384C460.834 34.056 465.2 34.5216 467.577 36.4357C468.016 36.7978 468.094 37.4445 467.732 37.8842C467.525 38.1687 467.215 38.298 466.931 38.298Z" fill="#0C2B34"/>
<path d="M470.729 61.0601C470.625 61.0601 470.522 61.0601 470.419 61.0601C469.308 60.9825 467.732 60.491 466.466 58.4735C466.233 58.1114 466.337 57.594 466.724 57.3613C467.112 57.1285 467.603 57.2319 467.835 57.6199C468.559 58.758 469.463 59.3788 470.548 59.4564C472.072 59.5599 473.906 58.5252 475.275 56.8439C475.559 56.5077 476.05 56.4559 476.412 56.7405C476.748 57.025 476.799 57.5165 476.515 57.8786C475.198 59.4564 473.028 61.0601 470.729 61.0601Z" fill="#F6917A"/>
<path d="M480.494 40.1345C479.667 40.1345 479.021 41.0398 479.047 42.1262C479.047 43.2125 479.719 44.092 480.545 44.0661C481.372 44.0661 482.018 43.1867 481.992 42.1003C481.992 41.0139 481.32 40.1345 480.494 40.1345Z" fill="#182040"/>
<path d="M462.643 40.1345C461.816 40.1345 461.17 41.0398 461.196 42.1262C461.196 43.2125 461.868 44.092 462.694 44.0661C463.521 44.0661 464.167 43.1867 464.141 42.1003C464.115 41.0139 463.469 40.1345 462.643 40.1345Z" fill="#182040"/>
<path d="M454.918 37.4962C455.952 31.5211 457.037 26.5031 459.336 23.9424C463.159 19.6745 464.58 23.1923 467.913 24.9512C472.046 27.1498 475.275 21.6403 479.822 21.8731C482.044 21.9766 483.749 22.7267 485.428 24.2269C486.694 25.365 488.166 28.5465 489.742 29.2191C494.444 31.2366 496.666 23.3734 496.588 32.0126C496.536 36.8754 496.097 39.3068 495.606 46.0061C498.474 48.1271 498.345 41.6865 499.326 40.4449C501.342 37.91 503.537 39.9793 504.287 41.583C505.294 37.8066 506.353 34.2371 506.999 30.3313C507.903 24.977 508.342 23.5544 505.811 19.5452C503.486 15.8464 500.696 17.3207 500.024 12.8718C498.913 5.68103 494.186 2.37018 489.458 1.82699C485.04 1.33554 480.726 1.10275 476.154 0.740623C472.408 0.456098 466.285 -1.30279 463.185 1.87873C461.609 3.48242 458.251 2.9651 457.218 4.87918C456.288 6.63807 458.458 10.6214 457.295 12.2251C454.557 16.0274 451.25 14.8634 451.405 19.6745C451.482 22.0542 450.449 27.4084 452.102 31.547L454.918 37.4962Z" fill="#543F3B"/>
<path d="M538.465 232.552L537.405 199.236L542.96 117.189C542.96 117.189 545.001 108.084 531.36 101.204L500.567 87.3916L483.826 125.078C483.826 125.078 477.962 162.325 477.11 196.287L479.538 232.552H538.465Z" fill="white"/>
<path d="M568.638 213.669C562.826 216.954 552.027 199.805 549.521 194.994C528.002 153.505 508.627 129.501 508.601 118.793C507.774 116.698 517.41 87.0813 537.741 107.127C544.949 113.542 577.448 186.743 583.131 201.099C583.131 201.073 581.478 207.513 568.638 213.669Z" fill="#F9B099"/>
<path d="M545.259 232.552H572.875C578.404 222.593 582.046 212.505 583.131 201.073C574.632 181.182 555.153 198.874 555.153 198.874C556.316 202.288 551.511 216.489 545.259 232.552Z" fill="#F9B099"/>
<path d="M446.161 232.552L459 130.277L454.479 89.7713L438.566 96.3413C427.38 102.213 425.933 114.861 425.933 114.861L418.467 232.552H446.161Z" fill="white"/>
<path d="M547.532 203.995L537.044 232.552H575.665C581.891 219.541 585.895 206.97 584.009 198.279L541.797 109.688C541.797 109.688 537.922 101.928 519.761 96.3413C519.761 96.3413 502.297 100.04 507.8 133.743L547.532 203.995Z" fill="#F4D7C3"/>
<path d="M446.238 201.228C445.851 201.228 445.515 200.943 445.437 200.555C444.792 196.52 438.824 149.134 439.186 144.038C439.444 140.495 442.079 138.839 444.637 137.261C445.722 136.589 446.832 135.89 447.788 135.037C444.559 134.442 440.787 133.485 439.986 130.588C439.599 129.165 441.459 120.319 445.024 104.515C445.851 100.842 446.497 97.9708 446.626 97.2466C446.703 96.8069 447.091 96.5223 447.53 96.5741C447.969 96.6517 448.253 97.0655 448.202 97.4794C448.072 98.2295 447.452 101.023 446.6 104.851C444.869 112.559 441.252 128.57 441.562 130.148C442.208 132.424 446.316 133.149 449.312 133.666L449.622 133.718C449.907 133.769 450.139 133.976 450.242 134.235C450.346 134.519 450.294 134.804 450.087 135.037C448.77 136.589 447.117 137.598 445.515 138.606C443.112 140.107 441.02 141.4 440.813 144.142C440.477 148.72 446.161 194.891 447.039 200.297C447.117 200.736 446.807 201.15 446.367 201.202C446.316 201.228 446.29 201.228 446.238 201.228Z" fill="#BED8E6"/>
<path d="M484.73 203.116C484.653 203.116 484.55 203.116 484.472 203.064C484.059 202.935 483.826 202.469 483.981 202.056C485.738 196.882 498.887 152.264 499.301 147.685C499.559 144.943 497.699 143.34 495.581 141.452C494.16 140.21 492.713 138.917 491.654 137.184C491.499 136.925 491.499 136.64 491.628 136.382C491.757 136.123 492.041 135.968 492.326 135.968H492.636C495.684 135.942 499.843 135.916 500.851 133.769C501.419 132.269 500.463 115.87 499.998 107.981C499.766 104.049 499.611 101.23 499.611 100.454C499.611 100.014 499.946 99.678 500.411 99.6521C500.851 99.6521 501.212 100.014 501.212 100.454C501.212 101.178 501.367 104.127 501.6 107.878C502.53 124.07 502.943 133.097 502.297 134.442C501.032 137.184 497.156 137.494 493.876 137.572C494.702 138.555 495.684 139.434 496.64 140.262C498.887 142.253 501.238 144.297 500.902 147.84C500.437 152.936 486.823 198.693 485.505 202.573C485.376 202.909 485.066 203.116 484.73 203.116Z" fill="#BED8E6"/>
<path d="M419.242 232.552C420.017 221.274 421.025 207.591 422.006 194.141C423.608 172.31 425.287 149.729 425.881 137.804C425.907 137.365 425.571 136.977 425.132 136.977C424.693 136.925 424.305 137.287 424.305 137.727C423.711 149.651 422.058 172.206 420.456 194.037C419.449 207.513 418.441 221.248 417.692 232.552H419.242Z" fill="#182040"/>
<path d="M516.48 149.884C516.222 149.884 515.938 149.755 515.808 149.496C504.002 130.433 502.452 120.81 508.601 104.774C508.756 104.36 509.221 104.153 509.634 104.308C510.047 104.463 510.254 104.929 510.099 105.343C504.183 120.81 505.707 130.122 517.178 148.642C517.41 149.03 517.307 149.522 516.919 149.755C516.764 149.832 516.609 149.884 516.48 149.884Z" fill="#182040"/>
<path d="M554.869 209.505C554.817 209.505 554.766 209.505 554.714 209.479C546.086 207.72 538.826 191.89 536.114 185.165C535.959 184.751 536.14 184.286 536.553 184.13C536.966 183.975 537.431 184.156 537.586 184.57C539.627 189.64 546.938 206.272 555.024 207.927C555.463 208.005 555.747 208.444 555.644 208.858C555.592 209.246 555.257 209.505 554.869 209.505Z" fill="#182040"/>
<path d="M550.322 215.687C549.961 215.687 549.625 215.428 549.547 215.066L549.418 214.445C548.566 210.617 547.713 206.66 545.465 202.806C545.233 202.418 545.362 201.926 545.75 201.719C546.137 201.486 546.628 201.616 546.835 202.004C549.211 206.065 550.116 210.152 550.968 214.109L551.097 214.73C551.201 215.17 550.916 215.583 550.477 215.687C550.426 215.687 550.374 215.687 550.322 215.687Z" fill="#182040"/>
<path d="M442.906 164.55C442.828 165.248 442.079 166.774 441.407 166.671L437.661 165.171C436.964 165.093 436.473 164.472 436.576 163.774C436.654 163.101 437.274 162.61 437.971 162.688L441.924 162.403C442.57 162.506 442.983 163.877 442.906 164.55Z" fill="#182040"/>
<path d="M447.866 165.145C447.788 165.843 448.15 167.499 448.847 167.576L452.826 166.981C453.497 167.059 454.143 166.567 454.221 165.895C454.298 165.222 453.807 164.576 453.136 164.498L449.364 163.308C448.667 163.231 447.969 164.472 447.866 165.145Z" fill="#182040"/>
<path d="M454.143 166.412C453.885 166.412 453.627 166.386 453.368 166.36L453.472 165.559C458.432 166.128 460.369 160.153 460.369 160.075C463.547 146.987 454.117 125.027 454.014 124.82C452.826 122.078 450.811 122.311 450.733 122.311H450.63L450.527 122.285C450.449 122.259 448.537 121.561 446.755 123.94C446.6 124.147 432.314 143.262 432.365 156.79C432.391 157.023 432.856 163.127 437.816 163.696L437.713 164.498C432.081 163.826 431.565 156.894 431.565 156.816C431.513 143.004 445.515 124.251 446.109 123.475C448.047 120.888 450.217 121.354 450.707 121.509C451.224 121.483 453.446 121.509 454.737 124.509C455.125 125.415 464.373 146.909 461.118 160.308C461.118 160.385 459.181 166.412 454.143 166.412Z" fill="#182040"/>
<path d="M449.752 122.181C449.726 122.181 449.726 122.181 449.752 122.181C449.519 122.181 449.338 121.974 449.364 121.768C449.519 118.793 451.276 92.4614 466.492 83.7187C466.673 83.6152 466.931 83.667 467.034 83.8739C467.138 84.055 467.086 84.3136 466.879 84.4171C452.025 92.9528 450.294 118.871 450.139 121.819C450.139 122.026 449.958 122.181 449.752 122.181Z" fill="#182040"/>
<path d="M496.201 134.882C496.149 134.882 496.097 134.882 496.071 134.856C495.865 134.778 495.761 134.545 495.839 134.338C500.592 121.431 503.072 112.12 503.822 107.722C504.958 101.075 505.449 89.3575 496.097 85.7362C495.891 85.6586 495.787 85.4258 495.865 85.2189C495.942 85.012 496.175 84.9085 496.381 84.9861C506.276 88.8143 505.785 100.945 504.597 107.852C503.847 112.301 501.342 121.664 496.588 134.623C496.511 134.778 496.356 134.882 496.201 134.882Z" fill="#182040"/>
<path d="M489.742 140.753C486.849 139.331 485.66 135.813 487.107 132.916C488.528 130.019 492.041 128.829 494.909 130.277L497.596 131.597L492.429 142.072L489.742 140.753Z" fill="#80AABF"/>
<path d="M500.024 139.331C498.603 142.228 495.116 143.417 492.222 141.969C489.329 140.546 488.14 137.028 489.587 134.157C491.008 131.26 494.521 130.071 497.389 131.519C500.282 132.942 501.471 136.434 500.024 139.331Z" fill="#93C3DA"/>
<path d="M497.415 138.037C496.691 139.486 494.961 140.081 493.514 139.356C492.067 138.632 491.473 136.899 492.196 135.451C492.92 134.002 494.651 133.407 496.097 134.131C497.544 134.83 498.138 136.589 497.415 138.037Z" fill="#5A99B3"/>
<path d="M495.167 142.952C495.141 142.952 495.141 142.952 495.116 142.952C491.499 142.538 489.846 140.934 489.096 139.693C488.166 138.115 488.063 136.071 488.812 134.209C489.381 132.812 490.646 131.648 492.3 131.028C494.082 130.329 496.02 130.381 497.57 131.157C497.776 131.26 497.854 131.493 497.751 131.7C497.647 131.907 497.415 131.985 497.208 131.881C495.891 131.234 494.16 131.183 492.584 131.778C491.137 132.321 490.052 133.33 489.561 134.519C488.916 136.149 488.993 137.934 489.794 139.305C490.724 140.882 492.61 141.891 495.219 142.176C495.451 142.202 495.606 142.409 495.581 142.616C495.555 142.822 495.374 142.952 495.167 142.952Z" fill="#182040"/>
<path d="M491.886 142.072C491.861 142.072 491.809 142.072 491.757 142.046C488.941 141.193 487.185 139.796 486.513 137.908C485.712 135.632 486.384 132.838 488.192 131.002C490.156 129.01 492.481 128.907 496.02 130.64C496.226 130.743 496.304 130.976 496.201 131.183C496.097 131.39 495.865 131.467 495.658 131.364C492.455 129.786 490.466 129.838 488.761 131.571C487.159 133.2 486.565 135.658 487.262 137.649C487.469 138.27 488.141 140.107 491.99 141.296C492.196 141.348 492.326 141.581 492.248 141.788C492.222 141.943 492.067 142.072 491.886 142.072Z" fill="#182040"/>
<path d="M499.249 140.107C499.146 140.107 499.017 140.055 498.939 139.951C498.81 139.77 498.836 139.537 498.991 139.382C499.688 138.839 500.127 137.546 500.102 136.149C500.076 134.882 499.688 133.821 499.042 133.355C498.861 133.226 498.836 132.967 498.965 132.786C499.094 132.605 499.352 132.58 499.533 132.709C500.386 133.355 500.902 134.597 500.928 136.149C500.954 137.804 500.412 139.331 499.533 140.029C499.43 140.081 499.326 140.107 499.249 140.107Z" fill="#182040"/>
<path d="M454.505 48.3082C454.505 48.3082 477.29 43.1867 492.067 49.8084C492.067 49.8084 490.931 65.1728 486.255 72.855C486.255 72.855 472.434 85.4 461.015 69.2596C461.015 69.2596 454.066 57.1802 454.505 48.3082Z" fill="white"/>
<path d="M487.495 54.8005L488.115 56.0938L496.872 46.4199L495.606 46.0061L487.495 54.8005Z" fill="white"/>
<path d="M497.544 58.1631L485.402 71.7427L486.255 72.8808L497.441 60.3358C497.441 60.31 497.518 58.7321 497.544 58.1631Z" fill="white"/>
<path d="M474.216 57.7751C476.644 57.6716 479.099 57.3871 481.553 56.9215C481.785 56.8698 481.94 56.6629 481.889 56.4301C481.837 56.1973 481.63 56.0421 481.398 56.0938C474.345 57.413 467.474 57.2319 460.989 55.5765C460.757 55.5248 460.524 55.6541 460.473 55.8869C460.421 56.1197 460.55 56.3266 460.783 56.4042C465.097 57.5164 469.592 57.982 474.216 57.7751Z" fill="#BED8E6"/>
<path d="M473.105 63.1294C474.991 63.0518 476.644 62.7672 478.35 62.3534C478.582 62.3016 478.711 62.0689 478.66 61.8619C478.608 61.6291 478.375 61.4998 478.169 61.5515C474.759 62.3534 471.555 62.6896 466.053 61.7585C465.82 61.7067 465.613 61.8619 465.562 62.0947C465.51 62.3275 465.691 62.5344 465.898 62.5862C468.791 63.0776 471.09 63.207 473.105 63.1294Z" fill="#BED8E6"/>
<path d="M472.899 68.225C475.895 68.0956 478.84 67.5007 481.346 66.4143C481.553 66.3109 481.656 66.0781 481.579 65.8712C481.475 65.6642 481.243 65.5608 481.036 65.6642C475.921 67.8628 468.998 68.0439 463.779 66.1298C463.573 66.0522 463.314 66.1557 463.237 66.3885C463.159 66.5954 463.263 66.8541 463.469 66.9317C466.311 67.9146 469.618 68.3543 472.899 68.225Z" fill="#BED8E6"/>
<path d="M422.187 232.552C421.567 224.042 421.128 214.678 421.024 204.746C421.024 204.746 405.653 177.509 398.11 180.742C396.741 181.337 393.847 204.72 395.837 232.526H422.187V232.552Z" fill="white"/>
<path d="M283.357 204.797C280.076 205.522 285.862 183.975 287.077 179.138C296.738 140.986 303.533 117.862 310.715 111.162C311.619 109.3 337.659 94.5048 336.91 120.655C337.117 129.501 310.766 191.14 304.669 203.892C304.669 203.892 295.498 209.583 283.357 204.797Z" fill="#F9B099"/>
<path d="M343.911 117.474L332.26 186.458C321.72 183.225 297.875 180.173 287.051 174.508C296.609 140.857 304.463 117.008 304.463 117.008C304.463 117.008 309.785 100.583 328.488 103.144C328.514 103.17 343.343 103.972 343.911 117.474Z" fill="#53B6AA"/>
<path d="M379.2 56.8181C379.536 55.7834 379.846 54.904 380.078 54.2315C384.186 43.0056 385.477 25.4426 372.276 21.2782C356.492 16.2861 358.249 41.7641 357.706 48.8772C357.086 57.1026 355.975 60.2841 359.721 67.8111C361.116 70.6305 362.666 73.1912 365.999 72.7515C369.719 72.2601 377.521 61.7067 379.2 56.8181Z" fill="#DB7951"/>
<path d="M370.959 65.1728L343.885 63.9829L342.413 97.6863L369.486 98.8503L370.959 65.1728Z" fill="#F9B099"/>
<path d="M361.891 83.46C364.862 77.873 366.722 72.1825 366.593 64.9658L343.911 63.9829L342.645 93.2632C349.801 92.4872 358.714 89.4092 361.891 83.46Z" fill="#F6917A"/>
<path d="M385.038 101.54L369.693 93.9099H343.265L331.433 101.954C331.433 101.954 329.521 118.689 346.158 123.837C346.158 123.811 381.783 129.967 385.038 101.54Z" fill="#F9B099"/>
<path d="M301.724 232.552H405.008C404.956 231.672 404.904 230.819 404.853 229.939C404 215.583 405.266 199.055 402.192 184.958L410.355 126.63C412.835 115.017 402.605 108.059 402.605 108.059L374.575 96.4965L350.834 115.017L340.087 96.4965L317.715 104.67C317.715 104.67 306.194 111.318 305.884 125.984L305.935 187.338C304.954 203.064 302.887 215.195 301.879 230.922C301.802 231.439 301.776 231.982 301.724 232.552Z" fill="#8057A4"/>
<path d="M345.177 25.4943C350.912 24.0976 349.078 28.6759 347.424 34.1336L339.442 37.6772C332.699 40.6001 336.471 44.7386 335.592 50.5843C335.231 52.9899 334.327 55.3178 333.836 57.6458C332.312 55.1885 329.806 43.5229 329.754 40.7294C329.754 40.7294 327.765 28.6241 336.032 26.1151C336.006 26.1151 341.638 25.0288 345.177 25.4943Z" fill="#DB7951"/>
<path d="M370.959 65.1727C369.125 71.1995 364.526 78.2609 359.334 82.115C354.244 85.8655 348.845 88.0383 343.291 84.1842C338.873 81.1321 335.773 76.3727 333.862 71.484C329.418 60.2323 330.71 44.0402 337.246 34.1336C344.428 23.244 360.16 24.201 367.135 35.0647C372.793 43.9368 373.904 55.4213 370.959 65.1727Z" fill="#F9B099"/>
<path d="M359.721 59.8444C359.747 60.7755 358.094 61.5515 356.027 61.6033C353.96 61.655 352.255 60.9566 352.229 60.0513C352.204 59.146 353.857 58.3441 355.949 58.2924C358.016 58.2148 359.721 58.9132 359.721 59.8444Z" fill="#F6917A"/>
<path d="M341.327 59.8444C341.353 60.7755 339.7 61.5515 337.633 61.6033C335.567 61.655 333.862 60.9566 333.836 60.0513C333.81 59.146 335.463 58.3441 337.53 58.2924C339.597 58.2148 341.302 58.9132 341.327 59.8444Z" fill="#F6917A"/>
<path d="M345.693 64.6037C344.376 64.6037 343.007 64.2933 342.335 63.4656C341.999 63.0776 341.586 62.2499 342.309 61.0083C347.063 53.1192 345.513 51.9294 344.376 51.0758C344.092 50.8689 343.859 50.6619 343.653 50.455C343.394 50.1446 343.42 49.679 343.704 49.4204C344.014 49.1617 344.479 49.1876 344.738 49.4721C344.867 49.6273 345.073 49.7566 345.254 49.9118C347.218 51.4121 348.561 53.4555 343.549 61.7843C343.239 62.3016 343.394 62.4568 343.446 62.5344C343.988 63.1811 346.21 63.3363 347.579 62.8448C347.967 62.7155 348.38 62.8966 348.535 63.2845C348.664 63.6725 348.483 64.0864 348.096 64.2157C347.476 64.4744 346.598 64.6037 345.693 64.6037Z" fill="#F6917A"/>
<path d="M335.747 50.274C335.437 50.274 335.153 50.1188 334.972 49.8601C334.662 49.4204 334.792 48.8255 335.205 48.5409C336.884 47.377 340.113 46.6268 343.601 48.3599C344.066 48.5927 344.273 49.1617 344.04 49.6273C343.807 50.0929 343.239 50.2998 342.774 50.067C339.157 48.2564 336.6 49.9118 336.316 50.0929C336.109 50.2222 335.928 50.274 335.747 50.274Z" fill="#DB7951"/>
<path d="M358.739 50.2739C358.533 50.2739 358.326 50.1963 358.145 50.067C356.569 48.8254 353.598 48.5409 351.919 50.0153C351.532 50.3515 350.938 50.3257 350.576 49.9377C350.24 49.5497 350.266 48.9289 350.653 48.5927C353.108 46.4458 357.112 46.8596 359.308 48.5927C359.721 48.9289 359.799 49.5238 359.463 49.9377C359.308 50.1705 359.024 50.2739 358.739 50.2739Z" fill="#DB7951"/>
<path d="M362.537 14.1651C365.818 14.7341 364.294 16.2085 365.534 18.2777C366.464 19.8297 369.305 20.1401 370.83 20.4763C374.059 21.1747 379.897 21.4851 379.122 26.4514C378.631 29.5294 376.436 31.5211 375.299 34.1853C373.955 37.341 376.281 43.2901 376.746 46.989C376.952 48.5668 376.746 50.8171 377.288 52.3432C376.642 50.5844 374.033 47.558 371.501 50.2222C370.442 51.3345 370.055 56.5077 369.615 57.9044C368.995 59.7668 367.652 59.2236 366.929 59.2495C366.335 53.9211 366.696 38.6084 360.987 38.5308C359.411 38.5049 357.267 39.5913 355.717 39.9276C351.868 40.7811 347.863 41.9451 343.963 41.2985C329.521 38.8412 327.3 33.4869 326.783 27.6154C326.783 27.5636 329.16 10.9835 362.537 14.1651Z" fill="#DB7951"/>
<path d="M338.847 51.7483C338.098 51.8 337.556 52.7312 337.633 53.8435C337.711 54.9557 338.382 55.8351 339.132 55.7834C339.881 55.7317 340.423 54.8005 340.346 53.6883C340.268 52.576 339.597 51.7224 338.847 51.7483Z" fill="#182040"/>
<path d="M356.518 53.7141C356.44 52.6019 355.769 51.7224 355.019 51.7742C354.27 51.8259 353.728 52.7571 353.805 53.8693C353.883 54.9816 354.554 55.861 355.304 55.8093C356.079 55.7575 356.595 54.8264 356.518 53.7141Z" fill="#182040"/>
<path d="M346.856 69.3372C346.468 69.3372 346.107 69.3113 345.745 69.2337C344.944 69.0527 344.35 68.7164 344.04 68.1991C343.833 67.8628 343.937 67.3973 344.273 67.1903C344.608 66.9834 345.073 67.0869 345.28 67.4231C345.332 67.5007 345.564 67.6818 346.055 67.7852C346.908 67.9663 348.225 67.8628 349.258 67.1903C349.594 66.9575 350.059 67.061 350.266 67.3972C350.498 67.7335 350.395 68.1991 350.059 68.406C349.155 69.0009 347.967 69.3372 346.856 69.3372Z" fill="#F6917A"/>
<path d="M398.239 183.949C398.084 183.949 397.903 183.898 397.774 183.794C395.01 181.492 392.762 175.414 390.773 170.059C389.998 167.99 389.275 166.05 388.603 164.472C386.976 160.799 385.477 156.842 384.005 153.04C381.886 147.53 379.691 141.84 377.107 136.666C376.926 136.304 377.081 135.865 377.443 135.683C377.805 135.502 378.244 135.658 378.425 136.02C381.034 141.27 383.256 146.987 385.374 152.522C386.846 156.324 388.345 160.256 389.947 163.903C390.644 165.507 391.393 167.473 392.168 169.568C394.08 174.767 396.276 180.639 398.73 182.682C399.04 182.941 399.092 183.406 398.833 183.717C398.678 183.846 398.472 183.949 398.239 183.949Z" fill="#182040"/>
<path d="M359.592 217.989C362.046 222.153 364.5 226.576 366.903 230.87C367.213 231.439 367.523 231.982 367.833 232.552H369.512C369.073 231.75 368.634 230.974 368.195 230.172C365.818 225.878 363.338 221.429 360.884 217.265C360.083 215.894 359.127 214.342 358.119 212.686C352.358 203.194 343.653 188.838 342.774 180.225C342.748 179.837 342.387 179.552 341.973 179.578C341.56 179.63 341.276 179.966 341.327 180.38C342.232 189.304 350.679 203.271 356.854 213.437C357.861 215.092 358.791 216.618 359.592 217.989Z" fill="#182040"/>
<path d="M379.174 54.2314C379.587 57.6716 378.089 61.7843 375.17 63.5432C371.191 65.9229 369.15 62.2499 368.737 58.4735C368.401 55.4213 369.176 50.0412 372.509 48.5927C375.661 47.2218 378.838 51.3862 379.174 54.2314Z" fill="#F9B099"/>
<path d="M373.31 61.4481C373 61.4481 372.741 61.267 372.612 60.9566C370.985 56.6111 371.605 52.2915 374.059 50.7137C374.395 50.5068 374.86 50.5844 375.066 50.9465C375.273 51.2827 375.195 51.7483 374.834 51.9553C373.025 53.1192 372.638 56.8439 373.981 60.4393C374.11 60.8273 373.93 61.2411 373.542 61.3963C373.49 61.4481 373.413 61.4481 373.31 61.4481Z" fill="#F6917A"/>
<path d="M372.69 55.6024C372.457 55.6024 372.25 55.4989 372.095 55.3178C371.863 54.9816 371.915 54.5418 372.25 54.2832C373.413 53.4037 375.351 53.5848 376.771 54.0504C377.159 54.1797 377.366 54.5936 377.236 54.9816C377.107 55.3696 376.694 55.5765 376.306 55.4472C375.247 55.085 373.826 54.9557 373.155 55.4472C373 55.5506 372.845 55.6024 372.69 55.6024Z" fill="#F6917A"/>
<path d="M326.266 232.552L335.179 134.933L332.699 98.514L316.45 103.842C306.194 109.223 304.876 120.81 304.876 120.81L299.219 232.552H326.266Z" fill="white"/>
<path d="M323.476 199.96C323.115 199.96 322.805 199.702 322.753 199.34C322.159 195.641 316.682 152.212 317.044 147.556C317.276 144.297 319.705 142.797 322.03 141.348C323.011 140.727 324.019 140.107 324.923 139.331C321.978 138.787 318.516 137.908 317.767 135.244C317.405 133.925 319.111 125.828 322.391 111.344C323.141 107.981 323.735 105.343 323.864 104.696C323.916 104.308 324.303 104.023 324.691 104.101C325.078 104.179 325.362 104.541 325.311 104.929C325.207 105.627 324.639 108.162 323.838 111.68C322.236 118.741 318.93 133.407 319.214 134.882C319.782 136.977 323.554 137.623 326.292 138.089L326.576 138.141C326.835 138.192 327.041 138.373 327.145 138.606C327.222 138.865 327.171 139.124 327.016 139.331C325.801 140.753 324.277 141.684 322.831 142.59C320.609 143.961 318.697 145.15 318.516 147.659C318.206 151.876 323.425 194.166 324.226 199.107C324.303 199.495 324.019 199.883 323.631 199.96C323.554 199.935 323.502 199.96 323.476 199.96Z" fill="#BED8E6"/>
<path d="M408.108 232.552L407.023 198.124L412.138 122.932C412.138 122.932 414.514 113.878 402.011 107.567L373.284 95.617L357.939 130.148C357.939 130.148 352.565 164.291 351.79 195.408L354.27 232.552H408.108Z" fill="white"/>
<path d="M358.739 201.668C358.662 201.668 358.584 201.668 358.507 201.642C358.119 201.512 357.913 201.099 358.042 200.711C359.644 195.977 371.708 155.083 372.07 150.893C372.302 148.384 370.597 146.909 368.66 145.176C367.368 144.038 366.025 142.874 365.069 141.27C364.94 141.038 364.94 140.753 365.043 140.52C365.172 140.288 365.405 140.158 365.689 140.132H365.973C368.763 140.107 372.586 140.081 373.516 138.115C374.033 136.718 373.155 121.69 372.741 114.473C372.535 110.878 372.38 108.291 372.38 107.593C372.38 107.179 372.715 106.92 373.129 106.869C373.542 106.869 373.852 107.205 373.852 107.619C373.852 108.266 374.007 110.981 374.214 114.422C375.066 129.243 375.428 137.52 374.86 138.761C373.697 141.271 370.132 141.581 367.135 141.633C367.885 142.538 368.789 143.34 369.667 144.116C371.734 145.926 373.878 147.815 373.568 151.074C373.155 155.73 360.677 197.684 359.463 201.228C359.334 201.486 359.049 201.668 358.739 201.668Z" fill="#BED8E6"/>
<path d="M320.79 166.542C320.712 167.162 320.041 168.533 319.421 168.456L316.01 167.111C315.39 167.033 314.951 166.49 315.029 165.869C315.106 165.248 315.675 164.809 316.295 164.886L319.886 164.627C320.48 164.705 320.841 165.921 320.79 166.542Z" fill="#182040"/>
<path d="M325.311 167.059C325.233 167.68 325.569 169.154 326.189 169.232L329.806 168.714C330.426 168.792 330.994 168.352 331.072 167.731C331.149 167.111 330.71 166.567 330.064 166.49L326.628 165.429C326.034 165.352 325.388 166.438 325.311 167.059Z" fill="#182040"/>
<path d="M331.02 168.197C330.787 168.197 330.555 168.171 330.296 168.145L330.374 167.421C334.895 167.938 336.6 162.739 336.652 162.506C339.545 150.789 330.968 131.157 330.865 130.95C329.78 128.493 327.894 128.725 327.868 128.725L327.765 128.751L327.687 128.725C327.61 128.7 325.879 128.079 324.251 130.226C324.122 130.407 311.102 147.53 311.154 159.609C311.18 159.816 311.593 165.274 316.114 165.791L316.036 166.516C310.921 165.921 310.456 159.687 310.43 159.635C310.379 147.271 323.115 130.484 323.657 129.786C325.414 127.458 327.403 127.898 327.842 128.027C328.307 128.001 330.348 128.027 331.511 130.691C331.872 131.493 340.294 150.763 337.323 162.739C337.375 162.791 335.618 168.197 331.02 168.197Z" fill="#182040"/>
<path d="M327.016 128.622C326.783 128.622 326.628 128.441 326.654 128.234C326.783 125.57 328.385 102.006 342.258 94.1685C342.438 94.0651 342.645 94.1427 342.748 94.2979C342.852 94.4789 342.774 94.6858 342.619 94.7893C329.108 102.42 327.532 125.622 327.403 128.26C327.377 128.467 327.196 128.622 327.016 128.622Z" fill="#182040"/>
<path d="M369.693 139.279C369.641 139.279 369.615 139.279 369.564 139.253C369.383 139.175 369.28 138.968 369.357 138.787C373.697 126.967 375.996 118.431 376.668 114.396C377.701 108.291 378.166 97.5828 369.59 94.2461C369.409 94.1685 369.305 93.9616 369.383 93.7805C369.46 93.5995 369.667 93.496 369.848 93.5736C378.916 97.0914 378.451 108.214 377.391 114.525C376.694 118.586 374.395 127.174 370.055 139.046C369.977 139.175 369.822 139.279 369.693 139.279Z" fill="#182040"/>
<path d="M363.777 144.659C361.142 143.34 360.031 140.132 361.349 137.494C362.666 134.856 365.87 133.769 368.505 135.063L370.959 136.278L366.231 145.875L363.777 144.659Z" fill="#80AABF"/>
<path d="M373.206 143.34C371.889 145.978 368.685 147.064 366.05 145.771C363.415 144.452 362.33 141.245 363.622 138.606C364.94 135.968 368.143 134.882 370.778 136.175C373.439 137.494 374.524 140.701 373.206 143.34Z" fill="#93C3DA"/>
<path d="M370.804 142.176C370.158 143.495 368.556 144.038 367.213 143.391C365.895 142.745 365.353 141.141 365.999 139.796C366.645 138.477 368.246 137.934 369.59 138.58C370.933 139.227 371.475 140.831 370.804 142.176Z" fill="#5A99B3"/>
<path d="M368.763 146.676C368.737 146.676 368.737 146.676 368.711 146.676C365.379 146.288 363.88 144.84 363.183 143.676C362.33 142.253 362.227 140.365 362.924 138.658C363.441 137.391 364.604 136.304 366.128 135.735C367.781 135.114 369.538 135.14 370.959 135.839C371.14 135.916 371.217 136.149 371.114 136.33C371.036 136.511 370.804 136.589 370.623 136.485C369.409 135.89 367.833 135.864 366.386 136.408C365.069 136.925 364.061 137.83 363.622 138.917C363.028 140.417 363.105 142.046 363.829 143.288C364.681 144.737 366.412 145.642 368.815 145.926C369.021 145.952 369.15 146.133 369.125 146.34C369.099 146.547 368.944 146.676 368.763 146.676Z" fill="#182040"/>
<path d="M365.766 145.849C365.74 145.849 365.689 145.849 365.663 145.823C363.079 145.021 361.478 143.754 360.858 142.021C360.109 139.925 360.729 137.391 362.408 135.683C364.19 133.847 366.335 133.769 369.564 135.347C369.745 135.425 369.822 135.658 369.719 135.839C369.641 136.02 369.409 136.097 369.228 135.994C366.283 134.545 364.449 134.597 362.899 136.175C361.426 137.675 360.884 139.9 361.529 141.762C361.736 142.331 362.33 144.012 365.869 145.099C366.076 145.15 366.179 145.357 366.102 145.564C366.05 145.745 365.921 145.849 365.766 145.849Z" fill="#182040"/>
<path d="M372.483 144.064C372.38 144.064 372.276 144.012 372.199 143.935C372.07 143.779 372.095 143.547 372.25 143.417C372.87 142.926 373.284 141.736 373.258 140.443C373.232 139.279 372.87 138.322 372.276 137.882C372.121 137.753 372.07 137.52 372.199 137.365C372.328 137.21 372.56 137.158 372.715 137.287C373.49 137.882 373.955 139.02 373.981 140.443C374.007 141.969 373.49 143.366 372.69 143.986C372.638 144.038 372.56 144.064 372.483 144.064Z" fill="#182040"/>
<path d="M308.389 232.551C303.274 221.481 299.322 211.445 299.942 207.41C299.942 207.41 290.022 197.374 282.349 215.635C283.512 222.541 285.139 227.87 287.309 232.526H308.389V232.551Z" fill="#F9B099"/>
<path d="M404.568 232.551C411.44 223.24 416.814 214.031 421.36 205.78C419.061 183.225 398.523 193.727 398.523 193.727C394.545 199.107 384.909 216.152 375.531 232.551H404.568Z" fill="#F9B099"/>
<path d="M284.881 232.552H314.925C309.345 219.981 303.92 208.677 303.92 208.677L304.411 141.943C304.411 141.943 302.112 113.102 318.671 103.092C318.671 103.092 302.009 106.739 295.008 136.304L282.349 196.908C282.349 196.908 276.227 215.739 283.227 230.12L284.881 232.552Z" fill="#DFD9E2"/>
<path d="M387.828 208.496L371.165 232.551H411.414C419.423 221.817 425.468 211.005 426.63 201.797C426.63 201.797 430.402 114.473 402.579 108.084C402.579 108.084 384.263 113.568 386.046 144.788C386.071 144.762 390.412 177.043 387.828 208.496Z" fill="#DFD9E2"/>
<path d="M382.92 41.4536C388.009 23.2181 376.539 15.8205 376.539 15.8205C349.646 4.18077 331.252 17.0103 331.252 17.0103C320.815 25.2615 329.935 42.54 329.935 42.54C329.935 42.54 365.301 45.7733 382.92 41.4536Z" fill="#8057A4"/>
<path d="M331.227 59.8185C331.227 59.8185 352.436 55.1109 365.973 61.2153C365.973 61.2153 364.914 75.2864 360.625 82.3478C360.625 82.3478 347.553 93.4443 337.091 78.6489C337.117 78.6231 330.839 67.9404 331.227 59.8185Z" fill="#D0C0DE"/>
<path d="M361.814 65.7677L362.382 66.9316L368.866 59.0943L367.368 59.2495L361.814 65.7677Z" fill="#D0C0DE"/>
<path d="M370.778 69.3889L359.566 81.2355L360.341 82.2702L370.7 71.2254C370.7 71.2254 370.752 69.9063 370.778 69.3889Z" fill="#D0C0DE"/>
<path d="M349.258 67.6818C351.48 67.6042 353.728 67.3455 356.001 66.9317C356.208 66.9058 356.337 66.6989 356.311 66.4919C356.285 66.285 356.079 66.1557 355.872 66.1815C349.388 67.3714 343.084 67.1645 337.168 65.6125C336.962 65.5608 336.755 65.6901 336.703 65.897C336.652 66.1039 336.781 66.3109 336.987 66.3626C340.914 67.3972 345.022 67.837 349.258 67.6818Z" fill="#8057A4"/>
<path d="M348.199 72.5963C349.93 72.5187 351.428 72.2859 353.004 71.9238C353.211 71.8721 353.34 71.6652 353.288 71.4582C353.237 71.2513 353.03 71.122 352.823 71.1737C349.698 71.8979 346.753 72.1825 341.715 71.303C341.508 71.2772 341.302 71.4065 341.276 71.6134C341.25 71.8203 341.379 72.0273 341.586 72.0531C344.273 72.5187 346.365 72.6481 348.199 72.5963Z" fill="#8057A4"/>
<path d="M347.993 77.2522C350.731 77.1487 353.444 76.6055 355.743 75.6226C355.924 75.545 356.027 75.3122 355.949 75.1312C355.872 74.9243 355.639 74.8467 355.459 74.9243C350.757 76.9159 344.428 77.0453 339.648 75.2605C339.442 75.1829 339.235 75.2864 339.157 75.4933C339.08 75.7002 339.183 75.9072 339.39 75.9848C341.973 76.9418 344.996 77.3557 347.993 77.2522Z" fill="#8057A4"/>
<path d="M620.251 233.091C620.251 239.368 482.957 240.374 312.872 240.374C142.814 240.374 4.34952 239.368 4.34952 233.091C4.34952 226.815 142.814 217.697 312.872 217.697C482.957 217.697 620.251 226.845 620.251 233.091Z" fill="#BFA5CF"/>
</g>
<defs>
<filter id="filter0_d_7_540" x="0.349518" y="0" width="623.902" height="248.374" filterUnits="userSpaceOnUse" color-interpolation-filters="sRGB">
<feFlood flood-opacity="0" result="BackgroundImageFix"/>
<feColorMatrix in="SourceAlpha" type="matrix" values="0 0 0 0 0 0 0 0 0 0 0 0 0 0 0 0 0 0 127 0" result="hardAlpha"/>
<feOffset dy="4"/>
<feGaussianBlur stdDeviation="2"/>
<feComposite in2="hardAlpha" operator="out"/>
<feColorMatrix type="matrix" values="0 0 0 0 0 0 0 0 0 0 0 0 0 0 0 0 0 0 0.25 0"/>
<feBlend mode="normal" in2="BackgroundImageFix" result="effect1_dropShadow_7_540"/>
<feBlend mode="normal" in="SourceGraphic" in2="effect1_dropShadow_7_540" result="shape"/>
</filter>
</defs>
</svg>
