<svg width="188" height="68" viewBox="0 0 188 68" fill="none" xmlns="http://www.w3.org/2000/svg">
<path d="M123.794 37.3944C123.366 36.5371 123.366 35.594 123.28 34.651C123.108 31.5647 123.28 28.3927 123.966 25.3922C125.166 20.5056 127.138 16.0476 130.31 12.1897C132.624 9.36065 135.282 6.87448 138.368 4.98842C140.94 3.35955 143.598 2.15933 146.427 1.30203C150.371 0.0160744 154.486 -0.155386 158.515 0.101804C162.116 0.358995 165.545 1.38776 168.803 2.9309C171.46 4.13112 173.946 5.75999 176.175 7.64605C178.319 9.44638 180.205 11.5039 181.748 13.8186C184.234 17.3335 185.949 21.1914 186.892 25.3922C187.663 28.6499 187.92 31.9076 187.663 35.1654C187.32 39.7091 186.206 43.9956 184.062 48.1106C182.434 51.1969 180.462 54.026 177.89 56.5122C174.804 59.5127 171.289 61.8274 167.345 63.4563C165.716 64.1421 164.087 64.5708 162.373 64.9995C161.858 65.0852 161.601 65.0852 161.858 64.4851C163.059 61.9132 162.973 59.1698 163.402 56.5122C163.744 54.4547 163.659 54.5404 165.716 54.7976C167.945 55.1405 170.088 55.3977 172.317 55.6549C175.147 55.9978 178.833 53.4259 179.862 50.7683C180.633 48.7107 180.633 46.5675 181.062 44.4242C181.491 42.1953 181.662 39.8805 182.005 37.6516C182.605 34.2224 180.462 30.3645 177.29 28.9928C175.575 28.307 173.775 28.2213 172.06 27.9641C170.86 27.7926 169.574 27.6211 168.374 27.4497C167.859 27.364 167.688 27.1068 167.688 26.5924C167.774 24.7921 168.031 22.9917 168.374 21.2771C169.231 17.2478 167.602 13.4757 164.173 11.5896C162.716 10.8181 161.173 10.8181 159.629 10.5609C156.8 10.1322 153.971 9.87503 151.228 9.36065C147.541 8.67481 143.512 10.8181 142.226 14.4187C141.54 16.2191 141.455 18.1051 141.283 19.9912C141.197 21.0199 140.769 21.963 140.855 22.906C140.855 23.4204 140.426 23.4204 140.083 23.4204C139.311 23.3346 138.454 23.4204 137.683 23.1632C136.482 22.8203 135.196 22.7345 133.91 22.5631C130.395 22.0487 126.966 24.0205 125.509 27.5354C124.652 29.6787 124.652 31.9077 124.309 34.1366C124.309 35.0797 124.223 36.2799 123.794 37.3944Z" fill="#7F56A7"/>
<path d="M137.168 51.0255C136.911 52.8258 136.654 54.6261 136.397 56.3407C136.311 56.9408 136.139 57.4552 136.139 58.0553C136.139 58.8269 135.711 58.6554 135.282 58.3982C134.768 58.0553 134.339 57.6267 133.91 57.198C131.51 54.969 129.367 52.4829 127.738 49.6538C127.566 49.3966 127.223 49.1394 127.481 48.7965C127.738 48.4536 127.995 48.7965 128.338 48.8822C129.71 49.568 131.253 49.6538 132.796 49.8252C134.082 49.9967 135.282 50.2539 136.568 50.3396C137.082 50.4253 137.168 50.7683 137.168 51.0255Z" fill="#423463"/>
<path d="M175.404 31.3933C172.06 30.8789 168.631 30.4502 165.288 30.0216C164.602 29.9358 164.345 29.7644 164.43 28.9071C164.859 25.8208 165.202 22.7345 165.716 19.6482C166.145 17.4193 164.773 14.8474 162.716 14.0758C160.401 13.4757 158.172 13.2185 155.772 12.8756C154.057 12.7041 152.428 12.4469 150.799 12.1897C148.056 11.7611 145.398 13.4757 144.97 16.3905C144.455 19.734 144.027 22.9917 143.598 26.3352C143.512 26.7638 143.426 26.8496 142.998 26.8496C139.911 26.3352 136.739 25.9065 133.653 25.4779C131.681 25.2207 129.624 26.2495 128.767 28.0498C127.824 29.9358 127.909 32.0791 127.566 34.1366C127.223 36.0227 127.138 37.9087 126.709 39.7948C125.852 43.3955 128.424 46.5675 131.939 46.5675C134.51 46.9104 137.168 47.339 139.74 47.682C140.426 47.7677 140.597 47.9392 140.512 48.625C140.169 51.1112 139.397 56.8551 139.14 58.6554C139.054 60.0271 139.397 61.4845 140.855 62.0846C141.026 62.1703 153.543 65.3424 154.4 65.5138C156.715 65.8567 159.201 64.1421 159.715 61.8274C160.144 60.2843 160.144 58.6554 160.401 57.0265C160.658 55.3119 160.83 53.5973 161.087 51.8827C161.173 51.1112 161.515 50.7682 162.373 50.9397C163.83 51.1969 165.202 51.3684 166.659 51.5398C168.631 51.797 170.517 52.1399 172.489 52.3114C173.775 52.3971 174.804 51.9685 175.832 51.1112C177.29 49.9109 177.547 48.1963 177.718 46.5675C178.147 43.3097 178.576 39.9663 179.09 36.7085C179.604 34.4795 177.633 31.6504 175.404 31.3933ZM142.741 46.3103V46.396C142.826 46.396 142.741 46.3103 142.741 46.3103Z" fill="#FF9342"/>
<path d="M65.5835 68H8.48727C5.48671 68 3.08627 65.5996 3.08627 62.599C3.08627 59.5985 5.48671 57.198 8.48727 57.198H65.5835C68.584 57.198 70.9845 59.5985 70.9845 62.599C70.9845 65.5996 68.584 68 65.5835 68Z" fill="#423463"/>
<path d="M18.089 53.4259C9.25885 53.4259 3.85785 51.1969 1.7146 46.6532C0.60011 44.0813 0 41.4237 0 38.8518C0 38.3374 0.08573 36.1084 0.34292 32.1648C0.51438 29.5072 2.14325 28.2213 5.1438 28.2213C6.51548 28.2213 7.80143 28.5642 8.83019 29.3357C9.94469 30.1073 10.4591 31.1361 10.5448 32.422C10.7163 34.3938 11.2306 35.7655 12.1737 36.4513C13.1167 37.2229 14.5741 37.5658 16.5459 37.5658H30.177C33.0061 37.5658 34.4635 36.1084 34.4635 33.2793C34.4635 33.1079 34.4635 32.765 34.3777 32.3363C34.292 31.9077 34.292 31.6505 34.292 31.3933C34.292 29.3358 35.4065 28.307 37.5498 28.307C39.8645 28.307 40.979 29.5072 40.979 31.9934C40.979 35.7655 41.922 37.6516 43.8081 37.6516H46.1228V53.4259H43.8081C42.0077 53.4259 40.0359 51.9685 37.8927 49.1394C35.7494 51.9685 33.349 53.4259 30.6914 53.4259H18.089ZM13.5453 20.4198C14.3169 19.6483 15.3457 19.2196 16.5459 19.2196C19.2893 19.2196 20.7467 20.5913 20.7467 23.4204C20.7467 26.1637 19.375 27.6211 16.5459 27.6211C15.4314 27.6211 14.4884 27.1925 13.6311 26.4209C12.7738 25.5636 12.4309 24.6206 12.4309 23.5061C12.3451 22.2202 12.7738 21.1914 13.5453 20.4198ZM26.4049 19.2196C29.1482 19.2196 30.6056 20.5913 30.6056 23.4204C30.6056 26.1637 29.2339 27.6211 26.4049 27.6211C25.2904 27.6211 24.3473 27.1925 23.49 26.4209C22.6327 25.5636 22.2898 24.6206 22.2898 23.5061C22.2041 20.5913 23.5758 19.2196 26.4049 19.2196Z" fill="#7F56A7"/>
<path d="M61.2112 53.4259H58.5536C56.6676 53.4259 54.6958 51.9685 52.724 49.1394C50.9236 52.0542 48.8661 53.4259 46.7229 53.4259H44.0652V37.6516H46.7229C48.6089 37.6516 49.6377 36.1942 49.6377 33.3651C49.6377 33.1079 49.6377 32.765 49.552 32.3363C49.4662 31.9077 49.4662 31.5647 49.4662 31.3075C49.4662 29.25 50.5807 28.2213 52.724 28.2213C55.0387 28.2213 56.1532 29.4215 56.1532 31.9077C56.1532 35.7655 56.9247 37.6516 58.5536 37.6516H61.2112V53.4259ZM43.1222 20.4198C43.8938 19.6483 44.9225 19.2196 46.1228 19.2196C48.8661 19.2196 50.3235 20.5913 50.3235 23.4204C50.3235 26.1637 48.9518 27.6211 46.1228 27.6211C45.0083 27.6211 44.0652 27.1925 43.2079 26.4209C42.3506 25.5636 42.0077 24.6206 42.0077 23.5061C41.922 22.2202 42.2649 21.1914 43.1222 20.4198Z" fill="#7F56A7"/>
<path d="M77.2428 53.4259H74.1565C72.2704 53.4259 70.2129 51.9685 68.1554 48.9679C66.0122 51.8828 63.9546 53.4259 62.0686 53.4259H59.5824V37.6516H60.8683C62.4972 37.6516 63.3545 35.7655 63.4402 31.9934C63.4402 31.1361 63.4403 28.3927 63.3545 23.7633C63.4403 22.3916 64.0404 21.2771 64.9834 20.4198C65.9264 19.5625 67.1266 19.1339 68.4126 19.1339C69.87 19.1339 70.9845 19.5625 71.8418 20.5056C72.6991 21.3629 73.042 22.5631 72.9563 24.0205C73.042 24.7921 73.1277 25.8208 73.1277 27.021C73.1277 27.5354 73.1277 28.307 73.042 29.3358C73.042 30.3645 72.9563 31.1361 72.9563 31.6505C72.9563 35.6798 73.8993 37.6516 75.7854 37.6516H77.1571V53.4259H77.2428Z" fill="#7F56A7"/>
<path d="M92.6741 53.4259H90.0165C88.1305 53.4259 86.1587 51.9685 84.1869 49.1394C82.3865 52.0542 80.329 53.4259 78.1858 53.4259H75.5281V37.6516H78.1858C80.0718 37.6516 81.1006 36.1942 81.1006 33.3651C81.1006 33.1079 81.1006 32.765 81.0149 32.3363C80.9291 31.9077 80.9291 31.5648 80.9291 31.3076C80.9291 29.25 82.0436 28.2213 84.1869 28.2213C86.5016 28.2213 87.6161 29.4215 87.6161 31.9077C87.6161 35.7655 88.3876 37.6516 90.0165 37.6516H92.6741V53.4259ZM77.157 59.8557C77.9286 59.0841 78.9573 58.6554 80.1576 58.6554C82.9009 58.6554 84.3583 60.0271 84.3583 62.8562C84.3583 65.5996 82.9867 67.057 80.1576 67.057C79.0431 67.057 78.1 66.6283 77.2427 65.8568C76.3854 64.9995 76.0425 64.0564 76.0425 62.942C75.9568 61.656 76.2997 60.6272 77.157 59.8557ZM89.9308 58.6554C92.6741 58.6554 94.1316 60.0271 94.1316 62.8562C94.1316 65.5996 92.7599 67.057 89.9308 67.057C88.8163 67.057 87.8733 66.6283 87.016 65.8568C86.1587 64.9995 85.8157 64.0564 85.8157 62.942C85.8157 60.0271 87.1874 58.6554 89.9308 58.6554Z" fill="#7F56A7"/>
<path d="M107.42 28.4785C110.335 28.4785 112.735 29.5929 114.621 31.7362C116.507 33.8794 117.45 36.4513 117.45 39.4519C117.45 41.8523 116.936 44.3385 115.993 46.9961C114.707 50.5111 112.906 52.6543 110.677 53.5116H90.7024V37.6516H93.36C93.1886 36.1942 93.6172 34.7367 94.646 33.3651C95.7605 31.9934 96.9607 31.3075 98.5038 31.3075C99.2754 31.3075 100.047 31.5647 100.647 32.0791C102.19 29.6787 104.505 28.4785 107.42 28.4785ZM100.39 37.6516C100.39 35.6798 99.704 34.7367 98.4181 34.7367C96.875 34.7367 96.1034 35.4226 96.1034 36.7943C96.1034 37.0515 96.1891 37.3944 96.2748 37.6516H100.39ZM109.049 37.6516C109.049 34.651 107.934 33.1079 105.791 33.1079C104.505 33.1079 103.562 33.708 103.048 34.8225C102.79 35.7655 102.533 36.7085 102.362 37.6516H109.049Z" fill="#7F56A7"/>
<path d="M15.6029 59.6842C15.6029 59.427 15.86 59.3413 16.1172 59.3413C16.3744 59.3413 16.6316 59.427 16.6316 59.6842V65.5996C16.6316 65.8568 16.3744 65.9425 16.1172 65.9425C15.7743 65.9425 15.6029 65.8568 15.6029 65.5996V62.8562H10.9734V65.5996C10.9734 65.8568 10.7162 65.9425 10.4591 65.9425C10.1161 65.9425 9.94467 65.8568 9.94467 65.5996V59.6842C9.94467 59.427 10.2019 59.3413 10.4591 59.3413C10.7162 59.3413 10.9734 59.427 10.9734 59.6842V62.0846H15.6029V59.6842Z" fill="#FF9342"/>
<path d="M19.8036 64.9137C19.8036 65.0852 19.9751 65.1709 20.2323 65.1709H24.1759C24.433 65.1709 24.6045 65.3424 24.6045 65.5138C24.6045 65.6853 24.433 65.8568 24.1759 65.8568H19.9751C19.2035 65.8568 18.8606 65.5996 18.8606 64.9995V60.2843C18.8606 59.6842 19.2035 59.427 19.9751 59.427H24.0901C24.3473 59.427 24.5188 59.5985 24.5188 59.7699C24.5188 59.9414 24.3473 60.1128 24.0901 60.1128H20.2323C19.9751 60.1128 19.8894 60.1986 19.8894 60.37V62.0846H23.5757C23.8329 62.0846 24.0044 62.2561 24.0044 62.4276C24.0044 62.599 23.8329 62.7705 23.5757 62.7705H19.8894V64.9137H19.8036Z" fill="#FF9342"/>
<path d="M26.5763 65.6853C26.4906 65.8568 26.3191 65.9425 26.1477 65.9425C26.0619 65.9425 25.9762 65.9425 25.8905 65.9425C25.6333 65.9425 25.5475 65.771 25.5475 65.5996C25.5475 65.5138 25.5475 65.5138 25.5475 65.4281L28.5481 59.7699C28.7196 59.5127 28.9767 59.3413 29.3197 59.3413C29.6626 59.3413 29.9198 59.427 30.0912 59.7699L33.0918 65.4281C33.0918 65.5138 33.1775 65.5138 33.1775 65.5996C33.1775 65.771 33.0061 65.8568 32.7489 65.9425C32.6631 65.9425 32.5774 65.9425 32.5774 65.9425C32.406 65.9425 32.2345 65.8568 32.1488 65.6853L31.2915 63.9707H27.4336L26.5763 65.6853ZM30.8628 63.2849L29.6626 60.8844C29.5769 60.6272 29.4054 60.37 29.3197 60.1128C29.2339 60.37 29.1482 60.6272 28.9767 60.8844L27.7765 63.2849H30.8628Z" fill="#FF9342"/>
<path d="M34.7206 59.6842C34.7206 59.427 34.9778 59.3413 35.235 59.3413C35.5779 59.3413 35.7494 59.427 35.7494 59.6842V64.828C35.7494 64.9995 35.9209 65.0852 36.1781 65.0852H40.0359C40.2931 65.0852 40.4646 65.2566 40.4646 65.4281C40.4646 65.5996 40.2931 65.771 40.0359 65.771H35.8351C35.0636 65.771 34.7206 65.5138 34.7206 64.9137V59.6842Z" fill="#FF9342"/>
<path d="M47.4087 59.6842C47.4087 59.427 47.6659 59.3413 47.9231 59.3413C48.1803 59.3413 48.4375 59.427 48.4375 59.6842V65.4281C48.4375 65.771 48.1803 65.9425 47.7516 65.9425C47.323 65.9425 47.0658 65.771 46.8086 65.4281L43.8938 61.8274C43.4651 61.313 42.9507 60.4557 42.6935 60.0271C42.7793 60.5415 42.865 61.7417 42.865 62.9419V65.5138C42.865 65.771 42.6078 65.8567 42.3506 65.8567C42.0077 65.8567 41.8362 65.771 41.8362 65.5138V59.7699C41.8362 59.427 42.0934 59.2555 42.5221 59.2555C43.0365 59.2555 43.2079 59.427 43.3794 59.6842L46.1227 63.1134C46.6371 63.7135 47.2372 64.6565 47.4944 65.0852C47.4087 64.5708 47.323 63.3706 47.323 62.1703V59.6842H47.4087Z" fill="#FF9342"/>
<path d="M51.6952 64.9137C51.6952 65.0852 51.8667 65.1709 52.1239 65.1709H56.0675C56.3247 65.1709 56.4961 65.3424 56.4961 65.5138C56.4961 65.6853 56.3247 65.8568 56.0675 65.8568H51.8667C51.0951 65.8568 50.7522 65.5996 50.7522 64.9995V60.2843C50.7522 59.6842 51.0951 59.427 51.8667 59.427H55.9817C56.2389 59.427 56.4104 59.5985 56.4104 59.7699C56.4104 59.9414 56.2389 60.1128 55.9817 60.1128H52.1239C51.8667 60.1128 51.781 60.1986 51.781 60.37V62.0846H55.4673C55.7245 62.0846 55.896 62.2561 55.896 62.4276C55.896 62.599 55.7245 62.7705 55.4673 62.7705H51.781V64.9137H51.6952Z" fill="#FF9342"/>
<path d="M57.782 60.1128C57.5249 60.1128 57.3534 59.9414 57.3534 59.7699C57.3534 59.5985 57.5249 59.427 57.782 59.427H63.7831C64.0403 59.427 64.2118 59.5985 64.2118 59.7699C64.2118 59.9414 64.0403 60.1128 63.7831 60.1128H61.297V65.5996C61.297 65.8568 61.0398 65.9425 60.7826 65.9425C60.5254 65.9425 60.2682 65.8568 60.2682 65.5996V60.1128H57.782Z" fill="#FF9342"/>
</svg>
