<svg width="97" height="99" viewBox="0 0 97 99" fill="none" xmlns="http://www.w3.org/2000/svg">
<path d="M32.4544 81.9366H30.1542C11.7526 81.9366 2.55182 77.26 2.55182 53.8772V30.4944C2.55182 11.7881 11.7526 2.435 30.1542 2.435H66.9573C85.3588 2.435 94.5596 11.7881 94.5596 30.4944V53.8772C94.5596 72.5835 85.3588 81.9366 66.9573 81.9366H64.6571C63.231 81.9366 61.8509 82.6381 60.9768 83.8072L54.0762 93.1604C51.0399 97.2757 46.0715 97.2757 43.0353 93.1604L36.1347 83.8072C35.3986 82.7784 33.7425 81.9366 32.4544 81.9366Z" stroke="black" stroke-width="4.5" stroke-linecap="round" stroke-linejoin="round"/>
<path d="M25.1028 30.3981H71.1067" stroke="black" stroke-width="4.5" stroke-linecap="round" stroke-linejoin="round"/>
<path d="M25.1028 53.8511H53.0659" stroke="black" stroke-width="4.5" stroke-linecap="round" stroke-linejoin="round"/>
</svg>
