<svg width="141" height="109" viewBox="0 0 141 109" fill="none" xmlns="http://www.w3.org/2000/svg">
<path d="M41.0686 55.1337C37.7251 57.1621 34.3275 58.8891 30.3368 56.285C35.9993 62.1236 36.4577 66.4546 31.8198 71.9369C33.95 73.0333 36.4038 71.0049 38.5879 73.609C43.873 79.8862 44.2235 94.1127 38.6149 100.225C32.8175 106.557 22.625 106.914 15.3176 100.5C4.99019 91.4538 1.5657 79.0638 0.756771 65.7967C0.325339 58.8891 1.53874 52.0362 3.74983 45.5123C8.5495 31.231 22.1666 23.3365 36.4308 26.2695C48.5648 28.7914 52.6634 39.3996 45.4099 49.5418C44.0347 51.4606 42.5247 53.2423 41.0956 55.1063L41.0686 55.1337Z" fill="black"/>
<path d="M103.384 65.7417C106.781 64.2889 108.399 62.0412 107.941 57.9295C107.509 54.0097 107.779 49.9254 112.39 46.307C105.298 48.3629 95.9953 41.1811 93.5415 33.4511C91.0068 25.447 94.3504 18.4571 102.062 15.6885C112.524 11.9332 124.2 15.4966 131.48 24.652C142.913 39.043 143.857 67.9346 133.179 83.0109C128.002 90.3023 121.099 94.6333 111.85 93.2628C99.9051 91.481 95.1324 80.9276 101.28 70.3194C102.17 68.757 103.815 67.5783 103.626 65.495L103.357 65.7691L103.384 65.7417Z" fill="black"/>
<path d="M49.6973 64.0973C51.0995 61.7674 51.4231 60.4516 52.1241 60.2049C61.6156 56.943 60.2404 49.4871 59.809 41.7296C59.1619 29.8605 59.5663 17.964 59.4045 6.06743C59.3506 2.75065 59.809 0.475505 63.9615 0.612562C67.9253 0.749619 67.8175 3.24406 67.8444 5.98519C67.8983 18.1284 67.3321 30.2717 68.2758 42.4423C68.8421 49.7064 71.215 53.9551 78.9807 53.7907C81.812 53.7358 84.6972 54.147 87.5015 54.6404C88.9846 54.8871 91.7619 53.4617 91.654 56.4496C91.5732 58.8344 90.3058 60.945 87.124 60.5065C84.5624 60.1501 81.9199 60.2323 79.3582 59.876C69.0848 58.4232 69.0578 58.3958 68.8151 69.2781C68.5994 80.1056 68.4916 90.9331 68.3028 101.788C68.2489 105.105 68.0601 108.175 63.3683 108.01C58.6765 107.846 59.6742 104.584 59.6742 101.843C59.7011 92.6052 59.5933 83.3401 59.9978 74.1025C60.2944 67.2771 60.4022 61.274 49.6434 64.0973H49.6973Z" fill="black"/>
<path d="M104.759 54.6951C96.6154 49.5418 88.5531 46.8554 78.9807 50.8027C74.0732 52.8311 69.1117 47.3214 70.7835 40.9346C73.7496 29.6959 73.1564 18.4572 73.0215 7.13634C72.9946 4.58708 71.4846 0.968781 76.2842 0.667256C81.3536 0.338319 80.7334 3.95662 80.6795 7.05411C80.5716 16.045 80.4098 25.036 80.1402 34.0269C79.8166 45.4026 81.7041 47.5681 92.8944 45.8686C100.202 44.7722 102.251 49.624 104.732 54.6677L104.759 54.6951Z" fill="black"/>
<path d="M79.4121 84.4363C79.0616 90.7683 78.6571 97.1278 78.4144 103.46C78.3066 106.256 77.6055 108.037 74.4237 107.955C71.107 107.846 70.7565 105.735 70.8374 103.103C71.1879 90.6587 71.4306 78.2413 71.862 65.7965C71.916 64.0422 71.0531 60.9173 74.6664 61.6574C77.0392 62.1234 79.8975 62.1234 79.7087 66.1803C79.4391 72.2656 79.6278 78.351 79.6278 84.4363C79.5469 84.4363 79.466 84.4363 79.3851 84.4363H79.4121Z" fill="black"/>
<path d="M103.626 65.4678C96.8312 69.415 95.0245 75.5826 96.6963 82.8466C98.1794 89.3431 98.476 95.8944 98.449 102.473C98.449 104.666 99.3119 107.736 95.5638 107.654C92.4359 107.599 93.1101 104.913 92.9483 102.912C92.3551 95.0447 91.7079 87.1502 91.2495 79.2831C90.9259 73.746 90.4945 68.0993 92.4629 62.8363C93.6493 59.6018 93.0292 53.489 97.8828 54.3662C102.898 55.2708 105.756 59.821 103.357 65.7419L103.626 65.4678Z" fill="black"/>
<path d="M47.8906 66.7561C53.2026 79.3928 50.9376 92.2487 50.4253 104.968C50.3444 106.749 49.3467 107.873 47.3514 107.599C45.7335 107.38 45.329 106.256 45.329 104.803C45.2751 94.5787 46.2997 84.3542 42.6595 74.3216C41.6619 71.6079 44.5201 68.6475 47.8906 66.7561Z" fill="black"/>
<path d="M41.0686 55.1063C47.594 56.5042 52.3128 52.7489 56.9507 48.9935C58.5147 51.022 57.517 52.3377 56.2496 53.2971C50.5332 57.6281 46.2458 63.2475 42.1203 69.0587C41.527 69.881 40.9608 71.9095 39.4508 70.2099C38.507 69.1409 39.7474 67.7155 39.8283 66.9754C40.2597 63.1378 43.7381 62.5622 45.1942 60.3418C47.648 56.5591 43.6303 56.0383 41.0956 55.1337L41.0686 55.1063Z" fill="black"/>
</svg>
