<svg width="163" height="103" viewBox="0 0 163 103" fill="none" xmlns="http://www.w3.org/2000/svg">
<path d="M34.482 88.9692C31.2982 88.1362 29.1332 89.4637 26.9937 91.442C23.7334 94.4875 20.193 97.1164 15.863 98.522C10.9472 100.11 6.59175 99.407 3.07681 95.5286C-0.336242 91.7543 -0.00512472 87.1471 1.59952 82.8002C3.40793 77.8545 7.22852 76.0845 12.4755 75.5379C20.626 74.7049 28.1908 74.8872 35.8065 78.6875C39.1431 80.3534 42.5307 81.0562 41.894 85.4552C41.2063 90.1145 37.3602 88.9692 34.482 88.9431V88.9692Z" fill="black"/>
<path d="M34.4566 46.8273C35.0933 51.2002 34.1764 52.5798 30.7888 52.8661C18.4356 53.9073 18.5375 54.0635 21.1864 41.0747C23.5552 29.4655 24.2684 17.7262 23.9118 5.88268C23.8099 3.27972 22.8929 0.260283 27.4522 0.234253C31.3746 0.208223 31.7058 2.26456 31.8076 5.38812C31.9859 12.6504 32.4444 19.9126 32.7755 27.2009C33.1066 34.2289 33.234 41.2569 34.4566 46.8533V46.8273Z" fill="black"/>
<path d="M38.4555 75.4859C31.9095 72.2582 24.141 70.7225 15.9395 70.8787C13.7999 70.9047 12.3736 68.3017 13.1377 65.6727C14.1056 62.3409 16.1942 58.8269 19.7346 60.1284C29.6172 63.7726 38.4555 61.6902 47.2173 56.8487C49.204 55.7555 51.6747 55.5472 53.2284 57.7077C54.6547 59.6599 53.3557 61.3778 52.1077 63.0698C50.3757 65.4645 48.8475 68.0414 47.2937 70.5663C45.4599 73.5597 42.8109 75.0694 38.43 75.4859H38.4555Z" fill="black"/>
<path d="M118.331 89.1513C116.294 93.0558 115.428 95.8149 113.67 97.7151C112.346 99.1467 110.588 97.0904 109.136 96.3095C102.285 92.6914 95.0001 90.5049 87.4354 89.2034C84.1497 88.6307 80.9404 87.0169 83.3601 83.4248C85.2958 80.5616 85.6779 73.4295 91.5871 76.4749C99.5848 80.6136 105.927 88.1362 115.81 88.3444C116.777 88.3444 117.745 88.9431 118.331 89.1513Z" fill="black"/>
<path d="M84.7864 73.4035C81.2715 77.9586 77.9603 82.8262 74.0124 87.069C72.0766 89.1253 70.0899 86.3402 68.4088 85.1688C65.8108 83.3468 65.4288 80.6917 66.4985 77.9066C68.2305 73.4035 70.5484 69.3168 75.5915 68.0414C78.8008 67.2084 81.2205 68.8483 83.3091 71.1389C83.7931 71.6595 84.0987 72.3362 84.8119 73.4295L84.7864 73.4035Z" fill="black"/>
<path d="M43.2439 1.0151C43.2439 6.14293 43.0401 11.2708 43.2948 16.3726C43.7533 26.1076 44.4665 35.8427 45.0523 45.5778C45.2051 47.9725 45.2051 49.9768 41.7666 49.7946C39.1941 49.6644 37.997 48.6493 38.3281 46.2285C40.4167 31.2355 40.0091 16.0602 40.5695 0.937012C41.461 0.963041 42.3524 0.989071 43.2439 1.04113V1.0151Z" fill="black"/>
<path d="M63.2893 60.9614C65.4797 60.9093 67.008 62.2889 68.2306 63.8246C69.8352 65.855 68.5107 67.4948 67.1353 69.0826C64.8684 71.7116 62.7034 74.4447 60.462 77.0997C59.3923 78.3752 58.5008 80.4315 56.4122 79.4424C54.4255 78.5053 52.5152 77.2559 52.1841 74.6269C51.6237 70.2019 59.0102 61.0915 63.2638 60.9614H63.2893Z" fill="black"/>
<path d="M120.776 97.0643C120.089 93.0557 121.693 91.4159 126.1 92.6132C130.15 93.7325 134.301 94.3312 138.529 93.8627C141.357 93.5243 142.554 94.7216 142.426 97.715C142.274 101.802 140.058 100.422 137.918 99.7714C133.461 98.3918 129.182 99.3809 124.877 100.682C122.279 101.463 119.681 101.776 120.776 97.0383V97.0643Z" fill="black"/>
<path d="M79.6923 90.4526C80.8894 91.0513 82.2394 91.65 83.5129 92.3528C88.7344 95.19 94.1851 97.2724 100.145 97.845C101.75 98.0012 103.991 98.2876 103.558 100.734C103.151 102.947 101.189 103.025 99.432 102.478C92.6313 100.37 85.8562 98.3136 78.7244 97.7409C76.6358 97.5847 75.6425 96.1531 76.6613 94.0708C77.3235 92.7172 76.9415 90.3225 79.6923 90.4787V90.4526Z" fill="black"/>
<path d="M72.3313 91.3902C71.7709 93.6027 70.4719 94.0713 68.8928 93.3164C62.194 90.1148 55.3934 87.3296 48.0578 86.0281C44.8231 85.4555 46.2749 83.3471 46.8352 81.4469C47.472 79.2084 48.4908 78.4535 50.503 79.8591C56.5905 84.154 62.8053 88.1365 70.2172 89.7764C71.0323 89.9586 71.72 90.8696 72.3568 91.3902H72.3313Z" fill="black"/>
<path d="M149.227 100.657C147.138 101.229 146.17 100.162 146.196 98.418C146.247 96.2575 147.087 94.1231 149.711 94.8519C153.124 95.789 156.461 95.9191 159.925 95.4766C161.173 95.3205 162.599 95.6849 162.523 97.2987C162.472 98.6002 161.376 99.5373 160.026 99.6414C156.359 99.8756 152.615 99.1989 149.227 100.683V100.657Z" fill="black"/>
</svg>
