<svg width="122" height="107" viewBox="0 0 122 107" fill="none" xmlns="http://www.w3.org/2000/svg">
<path d="M59.0115 38.4565C62.2721 34.4499 61.8958 31.6999 56.9155 29.1866C51.0573 26.2181 50.2511 21.6469 54.0312 16.7114C56.0018 14.1436 58.5995 11.4846 54.8194 8.75283C51.4514 6.33064 48.2446 7.7876 45.7007 10.7561C45.1632 11.3936 44.8587 12.2677 44.4466 13.0508C40.7382 5.38362 38.3018 4.27269 30.3117 6.54918C33.5543 3.08891 37.9793 2.74289 41.9385 6.29422C44.0525 8.18826 45.3782 9.06243 47.8684 6.96806C49.6062 5.5111 52.4367 4.69157 54.2103 6.16673C57.8112 9.13528 60.8926 7.35051 64.4935 6.45812C71.7849 4.65514 77.4998 8.44323 82.8206 13.0144C83.8238 13.8886 84.5046 16.2561 86.4752 14.6535C87.8905 13.5061 89.8253 12.9416 88.7325 9.82733C87.5143 6.31243 90.6494 4.27269 93.6592 3.70812C102.169 2.08726 110.231 4.38196 117.737 8.15183C121.875 10.228 122.126 19.8621 118.489 25.0343C117.307 26.7098 116.967 27.3108 118.418 29.1502C122.896 34.7959 121.553 41.7711 115.193 45.7595C112.703 47.3257 111.628 48.7098 112.739 51.6237C114.064 55.1204 112.076 57.7247 109.998 60.1469C108.188 62.2595 106.092 64.0807 104.587 66.5211C103.315 68.5608 103.333 70.291 104.265 72.4218C105.393 75.0079 106.827 72.9135 108.099 72.9317C111.628 73.0046 113.043 75.5178 113.402 78.3953C114.566 87.3556 111.915 95.6966 107.203 102.909C104.05 107.753 98.2633 106.223 93.8383 104.22C89.897 102.435 86.6723 102.235 82.5877 103.801C77.7506 105.677 74.0243 102.581 70.925 98.9748C69.8322 97.7 69.2052 95.4781 67.0016 96.3887C64.4398 97.4632 67.1987 98.9384 67.0375 100.304C66.5717 104.329 63.6874 105.604 60.5522 105.986C52.4726 106.97 44.6795 105.331 37.4239 101.725C35.6504 100.851 34.1276 100.159 32.1569 100.286C29.5055 100.45 26.9795 99.7215 24.758 98.2463C21.2288 95.9152 18.3803 92.7645 13.7761 91.8539C10.4439 91.1983 9.49445 87.1552 10.9097 84.4417C13.9015 78.7231 10.5335 73.4417 10.6948 67.9781C10.7843 64.6999 9.97816 61.6221 11.4293 58.2529C12.8625 54.9565 9.81692 52.3886 7.8821 50.44C1.66559 44.1751 -0.233401 37.5823 4.60365 29.6601C6.05477 27.2926 5.66064 24.8704 3.99454 22.776C2.31053 20.6634 1.37895 18.223 0.69818 15.6734C-0.896256 9.64521 0.572775 5.07402 4.99778 2.17832C9.69151 -0.899501 14.0807 0.575667 17.8966 3.74454C20.1897 5.63859 23.6831 6.53097 24.2206 10.228C21.8558 8.46144 19.491 6.67667 17.1262 4.91011C13.6866 2.36044 10.0677 1.01275 6.0906 3.56243C1.88057 6.25779 0.644435 10.8836 2.633 14.6717C6.55639 22.1386 8.74202 28.9863 4.31701 37.1452C2.91964 39.7131 5.0157 43.2645 6.91469 45.9052C7.32673 46.4698 7.97167 46.8522 8.32997 47.4532C11.8055 53.1171 15.7647 53.9184 22.859 53.3539C31.7628 52.6436 40.1649 52.1883 48.7462 49.0376C56.4139 46.2148 60.1581 48.9284 63.9561 57.1237C64.9772 59.3092 66.088 58.2529 67.2524 57.8886C73.3077 56.0675 78.091 57.9251 81.9965 63.1155C83.1431 61.8406 84.2717 60.584 85.4003 59.3274C84.5225 62.2231 83.1251 64.791 82.5339 69.435C80.5454 63.4797 78.3239 59.8009 73.2361 59.1453C68.2736 58.5079 64.5473 60.6933 61.5196 64.4085C61.0359 63.8622 60.6239 63.5708 60.6597 63.4251C63.5978 54.2281 59.4057 49.3472 49.8211 50.8042C47.743 51.1138 45.8082 51.8605 43.9808 52.8804C38.9826 55.685 33.9305 57.1784 28.0902 55.2297C23.1636 53.5906 18.649 56.3588 14.1165 57.9615C13.6686 58.1254 13.2566 58.5625 12.952 58.9632C9.78109 62.9516 13.9911 77.7579 18.8282 79.2148C25.6896 81.291 32.6048 82.7115 40.2545 77.4118C36.2416 82.3109 32.6227 83.7132 26.7287 83.094C23.8085 82.7844 20.9601 81.9284 18.0578 81.4731C14.8152 80.9632 12.4325 82.4566 11.9309 85.6801C11.4293 88.7943 13.3641 90.7976 16.4096 90.8523C18.9536 90.9069 20.5122 92.1817 22.2499 93.748C28.2515 99.1387 34.683 99.4483 41.1861 94.7678C45.2886 91.8175 49.2837 88.7579 53.3683 85.7711C56.3959 83.5675 58.4562 80.8175 57.4529 76.8473C56.4676 72.9499 54.4432 69.8175 50.3048 68.5244C45.8619 67.1403 41.4369 67.2496 36.9582 68.142C32.4077 69.0344 28.0723 68.8158 24.3281 65.2463C33.7693 69.089 41.7415 64.2993 50.1615 59.7463C50.1257 62.7877 48.7104 62.0592 48.0476 62.4234C46.9547 63.0426 45.7007 63.6254 45.9873 65.0641C46.2202 66.2115 47.4922 66.3572 48.5313 66.4665C54.0132 66.9764 57.435 70.1999 59.1011 75.2628C60.2118 78.6503 60.7314 82.6387 65.3355 82.2926C69.4918 81.9648 70.7817 78.4864 71.2833 74.7347C73.3256 75.1536 72.6269 76.5559 72.5553 77.6486C72.4657 78.9234 71.1579 80.4715 73.0927 81.2728C74.5259 81.8738 75.9054 81.0178 76.837 79.9979C79.2913 77.3026 82.0502 76.9748 85.3108 78.1585C86.4036 78.5592 87.7114 78.4135 88.9117 78.3589C95.5402 78.1403 97.1526 75.5542 94.5191 68.9615C98.4425 68.9797 102.097 68.6701 104.068 64.3903C105.68 60.8936 109.711 59.0724 110.858 55.1933C112.273 50.4218 105.411 44.3936 99.0874 44.9035C94.8774 45.2496 91.0794 47.0161 87.3531 48.8919C77.4282 53.8638 69.4202 52.5161 61.5017 44.43C57.5425 40.387 53.2966 36.8903 47.6713 35.5062C43.318 34.4317 39.4483 34.7959 36.3311 38.4929C33.7872 41.4979 30.1863 41.7893 26.7108 42.9184C23.1636 44.084 22.1604 43.0641 20.3868 40.4598C17.9682 36.9267 14.5286 39.3125 11.1426 40.0045C15.1377 36.3621 20.0106 33.3207 16.1051 27.0012C20.136 20.281 10.9993 18.733 11.0172 13.5972C17.7354 17.7495 21.1034 23.5591 20.0822 31.7727C19.5985 35.6154 21.0496 38.8025 24.6326 40.4416C28.3769 42.1353 31.3687 40.0774 33.9664 37.637C38.2122 33.6668 38.678 28.0393 39.9679 21.7562C40.5949 24.8158 42.7447 24.4333 44.8766 25.4896C42.888 26.8737 40.8457 27.5476 40.3799 29.824C39.9858 31.7909 39.7887 33.7942 42.3327 33.5211C48.6208 32.8654 53.6191 36.3075 59.0832 38.329C61.5017 41.3158 63.4007 45.9416 68.3094 43.3191C71.7133 41.5161 75.3142 39.276 75.2425 34.286C75.1709 29.478 74.5976 25.1436 69.4918 22.9764C68.2019 22.43 66.715 21.6833 66.4642 19.425C69.8322 21.8836 74.096 22.2843 76.1204 26.3091C79.3092 32.6833 77.5715 39.0939 71.3371 43.6105C70.2801 44.3754 68.4707 44.7943 68.8648 46.579C69.2231 48.1453 70.8892 48.3092 72.1791 48.6916C77.5177 50.2761 82.3906 48.8373 87.156 46.3787C93.7129 42.9913 100.341 41.5525 107.579 44.7396C112.416 46.8704 116.304 44.3208 118.239 38.6386C119.833 33.9217 117.809 29.9151 112.864 28.4764C110.911 27.9118 108.779 27.8572 106.719 27.6932C103.28 27.4201 100.341 26.2545 98.2633 23.2495C102.043 26.2727 106.45 25.435 110.678 25.7992C113.778 26.0724 117.074 26.5823 117.988 22.8489C119.045 18.5326 120.908 12.7412 116.429 10.1369C109.693 6.23958 101.954 4.2909 93.9458 5.91177C92.2797 6.25779 90.3628 7.05912 90.4703 9.22634C90.5778 11.43 92.5305 11.776 94.2683 12.0856C98.0483 12.7595 101.864 13.3058 104.856 16.2015C100.449 15.2909 96.0598 14.2893 91.581 14.7081C88.4101 15.0177 85.9199 16.0194 88.3026 20.0624C90.0224 22.9946 90.7211 26.2363 90.6494 29.6601C90.6136 30.9896 90.1299 33.0293 92.0826 33.0111C95.791 32.9929 99.1591 35.8522 102.724 34.7048C106.683 33.4482 105.483 36.089 105.644 37.5459C98.4783 37.7827 90.2195 30.8985 84.4688 41.6072C84.8808 39.4946 85.4183 37.8555 86.3678 36.4896C89.2879 32.3009 89.1625 27.9118 87.3352 23.4499C85.3466 18.6237 82.104 14.781 77.8402 11.8489C68.6319 5.49289 63.3828 6.54918 57.3992 15.9101C54.2342 20.8759 55.118 25.1921 60.0506 28.8588C64.2069 31.9366 63.759 35.579 58.8682 38.4201L59.0115 38.4565ZM91.6885 85.1155C89.9866 88.2115 90.9719 91.5989 90.1837 94.786C89.3596 98.1006 89.2521 101.051 93.068 102.69C97.7796 104.693 104.677 104.566 106.164 101.67C109.693 94.8043 112.416 87.5559 111.861 79.5609C111.717 77.4483 111.126 74.8804 108.726 74.6618C106.235 74.4433 105.537 76.9019 105.035 79.0145C104.139 82.7297 103.387 86.4996 100.126 90.2148C101.542 84.4599 103.781 79.7612 103.19 74.589C102.957 72.5857 102.169 70.637 99.7861 70.637C97.6721 70.637 97.6005 72.4946 97.5288 74.0973C97.3317 78.195 94.8236 80.4168 91.2048 80.3622C84.9166 80.2893 78.7718 80.3075 73.0032 83.2943C72.5911 83.5128 71.9103 83.2032 71.4804 83.4218C66.9837 85.5708 61.6092 83.1122 57.3992 85.8804C51.4693 89.796 45.844 94.2033 40.0395 98.3374C38.3914 99.5211 38.266 100.687 40.1829 101.269C46.6502 103.218 53.1712 105.203 60.0327 104.384C62.29 104.111 65.443 103.51 65.2997 100.414C65.1743 97.7546 62.3975 97.4268 60.1044 97.099C56.593 96.589 53.0458 96.0973 49.8749 93.5841C57.2021 93.6751 65.0489 99.1933 70.6742 90.2513C70.7459 97.4996 74.2393 102.107 79.99 102.563C84.8271 102.945 87.9443 99.1205 88.84 91.7446C89.1267 89.3225 89.3954 86.8821 91.7423 85.1337L91.6885 85.1155Z" fill="black"/>
<path d="M30.4908 6.38533C29.0756 9.9913 28.7173 13.6701 29.5413 17.5128C30.0967 20.0443 29.9892 22.5575 27.2841 25.7264C29.7205 19.2248 27.7857 14.781 24.6147 10.6469C25.7254 10.6105 27.1586 11.9764 27.6244 9.51779C27.8932 8.13368 28.341 6.29427 30.4729 6.38533H30.4908Z" fill="black"/>
</svg>
