<svg width="243" height="332" viewBox="0 0 243 332" fill="none" xmlns="http://www.w3.org/2000/svg">
<mask id="mask0_91_659" style="mask-type:luminance" maskUnits="userSpaceOnUse" x="0" y="2" width="243" height="244">
<path d="M121.386 2.90112C54.4684 2.90112 0.220734 57.1488 0.220734 124.067C0.220734 190.984 54.4684 245.232 121.386 245.232C188.304 245.232 242.552 190.984 242.552 124.067C242.552 57.1488 188.304 2.90112 121.386 2.90112Z" fill="white"/>
</mask>
<g mask="url(#mask0_91_659)">
<path d="M189.978 205.178L185.297 197.727C187.52 180.405 182.722 163.045 171.72 149.273C159.392 133.824 141.017 125.007 121.277 125.007C101.537 125.007 83.1624 133.824 70.8345 149.273C59.521 163.435 54.7612 181.38 57.453 199.131L52.5375 205.178C47.7782 184.111 52.7716 162.42 66.2309 145.567C79.6512 128.714 99.7424 119.039 121.277 119.039C142.812 119.039 162.865 128.714 176.324 145.567C189.783 162.42 194.777 184.111 189.978 205.178Z" fill="black"/>
</g>
<path d="M190.995 307.624L164.462 317.181L162.398 311.449L188.931 301.892C200.387 297.766 206.352 285.089 202.225 273.633L200.935 270.05L206.666 267.985L207.957 271.568C213.221 286.185 205.613 302.36 190.995 307.624Z" fill="black"/>
<path d="M174.884 311.808C176.309 315.765 174.257 320.127 170.3 321.553L148.79 329.299C144.833 330.725 140.471 328.672 139.046 324.715L138.014 321.849C136.589 317.892 138.64 313.53 142.597 312.105L164.107 304.358C168.064 302.933 172.427 304.985 173.852 308.942L174.884 311.808Z" fill="#A691FF"/>
<path d="M50.1381 189.67H57.1642C57.7368 189.67 58.2007 190.134 58.2007 190.709V206.814H49.1006V190.709C49.1006 190.134 49.5659 189.67 50.1381 189.67Z" fill="black"/>
<path d="M192.415 189.67H185.389C184.816 189.67 184.353 190.134 184.353 190.709V206.814H193.452V190.709C193.452 190.134 192.987 189.67 192.415 189.67Z" fill="black"/>
<path d="M49.103 216.365V269.485C36.8127 269.485 26.8498 259.476 26.8498 247.185V238.619C26.8498 226.328 36.8127 216.365 49.103 216.365Z" fill="black"/>
<path d="M54.8805 276.974H51.7448C49.0054 276.974 46.7857 274.753 46.7857 272.014V210.435C46.7857 207.697 49.0054 205.476 51.7448 205.476H54.8805C57.6194 205.476 59.8386 207.697 59.8386 210.435V272.014C59.8386 274.753 57.6194 276.974 54.8805 276.974Z" fill="#A691FF"/>
<path d="M215.726 236.196V244.762C215.726 257.052 205.716 267.062 193.425 267.062V213.942C205.716 213.942 215.726 223.905 215.726 236.196Z" fill="black"/>
<path d="M187.671 276.96H190.807C193.545 276.96 195.765 274.739 195.765 272.001V210.421C195.765 207.683 193.545 205.462 190.807 205.462H187.671C184.933 205.462 182.712 207.683 182.712 210.421V272.001C182.712 274.739 184.933 276.96 187.671 276.96Z" fill="#A691FF"/>
<mask id="mask1_91_659" style="mask-type:luminance" maskUnits="userSpaceOnUse" x="0" y="0" width="243" height="243">
<path d="M121.165 0C54.2477 0 0 54.2477 0 121.165C0 188.083 54.2477 242.331 121.165 242.331C188.083 242.331 242.331 188.083 242.331 121.165C242.331 54.2477 188.083 0 121.165 0Z" fill="white"/>
</mask>
<g mask="url(#mask1_91_659)">
<path d="M183.509 155.942L177.783 159.062C176.526 159.713 174.943 159.294 174.198 158.037C162.28 138.018 141.796 128.009 121.265 128.009C100.78 128.009 80.2959 138.018 68.3776 158.037C67.6329 159.294 66.0497 159.713 64.7465 159.062L59.0662 155.942C57.7162 155.244 57.2507 153.522 58.0424 152.218C72.195 128.149 96.7298 116.137 121.265 116.137C145.799 116.137 170.38 128.149 184.533 152.218C185.325 153.522 184.813 155.244 183.509 155.942Z" fill="black"/>
</g>
</svg>
